<?xml version="1.0" encoding="UTF-8"?>
<svg width="23px" height="22px" viewBox="0 0 23 22" version="1.1" xmlns="http://www.w3.org/2000/svg" xmlns:xlink="http://www.w3.org/1999/xlink">
    <!-- Generator: Sketch 41.2 (35397) - http://www.bohemiancoding.com/sketch -->
    <title>icon_notice_index</title>
    <desc>Created with Sketch.</desc>
    <defs>
        <path d="M0,7.49201702 C0,6.3918564 0.902952545,5.5 1.99405755,5.5 L6.30220657,5.5 L11.5490578,1.25844828 C12.4117896,0.561016308 13.1150001,0.89355017 13.1197395,2.00523323 L13.1972663,20.1898046 C13.201998,21.2996745 12.507894,21.6320848 11.6497173,20.9345199 L6.19416492,16.5 L1.99396821,16.5 C0.892729975,16.5 0,15.5998238 0,14.507983 L0,7.49201702 Z" id="path-1"></path>
        <mask id="mask-2" maskContentUnits="userSpaceOnUse" maskUnits="objectBoundingBox" x="0" y="0" width="13.1972903" height="20.4054564" fill="white">
            <use xlink:href="#path-1"></use>
        </mask>
    </defs>
    <g id="Page-1" stroke="none" stroke-width="1" fill="none" fill-rule="evenodd">
        <g id="index" transform="translate(-120.000000, -384.000000)">
            <g id="Group">
                <g id="公告" transform="translate(0.000000, 360.000000)">
                    <rect id="Rectangle-Copy-4" fill-opacity="0" fill="#FFFFFF" x="0" y="10" width="1440" height="50"></rect>
                    <g id="喇叭" transform="translate(120.000000, 24.000000)" stroke="#9E9E9F">
                        <use id="Rectangle-2" mask="url(#mask-2)" stroke-width="4" xlink:href="#path-1"></use>
                        <path d="M20.2086292,16.8445318 C21.3435976,15.1512312 22,13.1474801 22,11 C22,8.8410451 21.3365641,6.82735934 20.1903946,5.12835108" id="Oval-2" stroke-width="2"></path>
                        <path d="M16.9012397,14.4705707 C17.576268,13.4634715 17.9666667,12.2717303 17.9666667,10.9945055 C17.9666667,9.71045597 17.5720848,8.51280605 16.8903946,7.50231218" id="Oval-2" stroke-width="2"></path>
                    </g>
                </g>
            </g>
        </g>
    </g>
</svg>
