<?xml version="1.0" encoding="UTF-8"?>
<svg width="18px" height="14px" viewBox="0 0 18 14" version="1.1" xmlns="http://www.w3.org/2000/svg" xmlns:xlink="http://www.w3.org/1999/xlink">
    <!-- Generator: Sketch 42 (36781) - http://www.bohemiancoding.com/sketch -->
    <title>icon_alert@1x</title>
    <desc>Created with Sketch.</desc>
    <defs></defs>
    <g id="Page-1" stroke="none" stroke-width="1" fill="none" fill-rule="evenodd">
        <g id="摘牌_确认意向_有禁售期_改" transform="translate(-246.000000, -305.000000)">
            <g id="Group" transform="translate(120.000000, 136.000000)">
                <g id="Group-16" transform="translate(124.000000, 115.000000)">
                    <g id="Group-17" transform="translate(2.000000, 53.000000)">
                        <path d="M7.38736036,2.02818135 C8.27799664,0.634109923 9.72797064,0.643450224 10.6126396,2.02818135 L17.2873604,12.4758104 C18.1779966,13.8698818 17.5546321,15 15.8928062,15 L2.10719383,15 C0.446366537,15 -0.172029363,13.8605415 0.71263964,12.4758104 L7.38736036,2.02818135 Z" id="Triangle" fill="#FFD800"></path>
                        <path d="M10.124677,4.41176471 C10.6724904,4.41176471 11.0337162,4.85360837 10.9314573,5.39886514 L10.1494878,9.56841866 C10.0472469,10.1135792 9.52348271,10.5555191 8.97010346,10.5555191 L9.34517777,10.5555191 C8.79606268,10.5555191 8.26712409,10.1136754 8.1637196,9.56841866 L7.37299018,5.39886514 C7.26960394,4.85370462 7.6367042,4.41176471 8.17769662,4.41176471 L10.124677,4.41176471 Z M9.12537167,11.2325343 C9.46097039,11.2325343 9.73417808,11.3379873 9.94500292,11.5488965 C10.1558278,11.7598057 10.2612386,12.0107839 10.2612386,12.3018386 C10.2612386,12.6013296 10.1547521,12.8554714 9.94177602,13.0642715 C9.72879991,13.2730716 9.47387778,13.3774701 9.17700198,13.3774701 C8.87582364,13.3774701 8.61875027,13.2730716 8.40577415,13.0642715 C8.19279804,12.8554714 8.08631158,12.6034387 8.08631158,12.3081658 C8.08631158,12.0044566 8.1960249,11.7492603 8.41545484,11.5425692 C8.63488477,11.3358782 8.87152135,11.2325343 9.12537167,11.2325343 Z" id="!" fill="#FFFFFF"></path>
                    </g>
                </g>
            </g>
        </g>
    </g>
</svg>