<?xml version="1.0" encoding="UTF-8"?>
<svg width="145px" height="136px" viewBox="0 0 145 136" version="1.1" xmlns="http://www.w3.org/2000/svg" xmlns:xlink="http://www.w3.org/1999/xlink">
    <!-- Generator: Sketch 41.2 (35397) - http://www.bohemiancoding.com/sketch -->
    <title>pic_buy_confirm</title>
    <desc>Created with Sketch.</desc>
    <defs>
        <rect id="path-1" x="0" y="0" width="1160" height="228" rx="6"></rect>
        <filter x="-50%" y="-50%" width="200%" height="200%" filterUnits="objectBoundingBox" id="filter-3">
            <feOffset dx="0" dy="2" in="SourceAlpha" result="shadowOffsetOuter1"></feOffset>
            <feGaussianBlur stdDeviation="3.5" in="shadowOffsetOuter1" result="shadowBlurOuter1"></feGaussianBlur>
            <feColorMatrix values="0 0 0 0 0   0 0 0 0 0   0 0 0 0 0  0 0 0 0.165194746 0" type="matrix" in="shadowBlurOuter1"></feColorMatrix>
        </filter>
    </defs>
    <g id="Page-1" stroke="none" stroke-width="1" fill="none" fill-rule="evenodd">
        <g id="摘牌_确认意向_有禁售期" transform="translate(-1155.000000, -215.000000)">
            <g id="Group">
                <g id="天金所开户">
                    <g id="Oval" transform="translate(140.000000, 215.000000)">
                        <mask id="mask-2" fill="white">
                            <use xlink:href="#path-1"></use>
                        </mask>
                        <g id="Mask">
                            <use fill="black" fill-opacity="1" filter="url(#filter-3)" xlink:href="#path-1"></use>
                            <use fill="#484B53" fill-rule="evenodd" xlink:href="#path-1"></use>
                        </g>
                        <g id="Group-4" opacity="0.523267663" mask="url(#mask-2)">
                            <g transform="translate(1018.000000, -8.000000)">
                                <circle id="Oval" stroke="#5F626B" stroke-width="6" fill="none" cx="71.1132812" cy="70.2617188" r="70.2617188"></circle>
                                <ellipse id="Oval" stroke="#5F626B" stroke-width="2" fill="none" cx="71.9232381" cy="70.1954578" rx="60.5570615" ry="60.5570615"></ellipse>
                                <path d="M57.7761779,60.6389651 L58.918756,59.1155276 C60.3237109,59.9957404 61.7117179,60.8844034 63.0828185,61.7815433 L67.0183654,57.2112308 L58.2585998,57.2112308 L58.2585998,55.4592776 C58.5802159,54.435184 58.9018273,53.343398 59.2234435,52.183887 L56.3289123,52.183887 L56.3289123,50.4573245 L59.7058654,50.4573245 C59.9851637,49.3909129 60.2686895,48.2737366 60.5564513,47.105762 L57.5222716,47.105762 L57.5222716,45.3791995 L60.9753966,45.3791995 C61.2716221,44.1350527 61.5678431,42.8401437 61.8640685,41.4944339 L63.8191466,41.4944339 C63.5313848,42.8232166 63.2351638,44.1181255 62.9304748,45.3791995 L69.7605529,45.3791995 L69.7605529,47.105762 L62.5242248,47.105762 C62.2364629,48.2568094 61.9529371,49.3739858 61.6736388,50.4573245 L70.6746154,50.4573245 L70.6746154,52.183887 L61.2039123,52.183887 C60.8907596,53.3180073 60.5776117,54.4182567 60.2644591,55.4846683 L69.481256,55.4846683 L69.481256,57.2874026 L64.6570373,62.8098636 C65.6642037,63.4784867 66.6628917,64.1513315 67.653131,64.8284183 L66.3328185,66.5041995 C63.5906173,64.4560122 60.7384323,62.5009536 57.7761779,60.6389651 Z M48.1023498,53.6565433 L51.200006,53.6565433 L51.200006,48.6545901 L53.0789123,48.6545901 L53.0789123,53.6565433 L56.5066466,53.6565433 L56.5066466,55.3831058 L53.0789123,55.3831058 L53.0789123,58.8108401 C54.3569134,58.6331049 55.6772127,58.4469088 57.0398498,58.2522464 C56.9721411,58.8446973 56.9128969,59.4540662 56.8621154,60.0803714 C55.5925778,60.2665702 54.3315227,60.4527663 53.0789123,60.6389651 L53.0789123,66.4280276 L51.200006,66.4280276 L51.200006,60.918262 C49.3549447,61.1975603 47.5183745,61.4768544 45.6902404,61.7561526 L45.4109435,59.8010745 C47.2390776,59.5810213 49.1687458,59.3355811 51.200006,59.0647464 L51.200006,55.3831058 L45.9949279,55.3831058 L45.9949279,53.6819339 C46.8836042,51.7945547 47.7214864,49.5940558 48.5085998,47.0803714 L45.715631,47.0803714 L45.715631,45.3538089 L49.0291076,45.3538089 C49.4015053,44.0758077 49.7612022,42.7216546 50.1082091,41.2913089 L52.1902404,41.6975589 C51.8093791,42.9417057 51.4242918,44.1604435 51.0349669,45.3538089 L56.5066466,45.3538089 L56.5066466,47.0803714 L50.4636779,47.0803714 C49.7019553,49.3486119 48.9148538,51.5406473 48.1023498,53.6565433 Z M79.7644591,62.8987308 L86.137506,62.8987308 L86.137506,41.7229495 L88.3464904,41.7229495 L88.3464904,49.137012 L95.4050841,49.137012 L95.4050841,51.0413089 L88.3464904,51.0413089 L88.3464904,62.8987308 L96.700006,62.8987308 L96.700006,64.8284183 L79.7644591,64.8284183 L79.7644591,62.8987308 Z M81.2878966,57.9983401 C81.4571683,58.8616257 81.6264375,59.6064099 81.7957091,60.2327151 C80.170701,61.3499082 78.6134249,62.5009384 77.1238341,63.6858401 C76.6498734,64.0920922 76.1928467,64.5829727 75.7527404,65.1584964 L74.0769591,63.4827151 C74.7371187,62.8733371 75.0671935,61.9931376 75.0671935,60.8420901 L75.0671935,52.0569339 L71.4109435,52.0569339 L71.4109435,50.1272464 L77.1238341,50.1272464 L77.1238341,61.1721683 C78.3425902,60.2919555 79.7305972,59.2340234 81.2878966,57.9983401 Z M75.4226623,42.0784183 C76.3705837,42.9247767 77.8093714,44.3127836 79.7390685,46.2424808 L78.0632873,47.8166995 C76.4721335,46.0054925 75.1095169,44.5582414 73.9753966,43.4749026 L75.4226623,42.0784183 Z M54.4246154,92.1858401 L68.871881,92.1858401 L68.871881,101.478809 L66.9168029,101.478809 L66.9168029,99.9553714 L56.3796935,99.9553714 L56.3796935,101.478809 L54.4246154,101.478809 L54.4246154,92.1858401 Z M45.4109435,88.6565433 C47.8992372,84.9664206 49.7696612,80.8870344 51.0222716,76.418262 L53.0027404,76.9768558 C52.2664086,79.2535598 51.4623802,81.3524972 50.590631,83.2737308 L50.590631,101.478809 L48.7117248,101.478809 L48.7117248,86.9934573 C47.933075,88.3560943 47.1121197,89.6044543 46.2488341,90.7385745 C45.9779994,90.0276335 45.6987054,89.33363 45.4109435,88.6565433 Z M66.9168029,93.9124026 L56.3796935,93.9124026 L56.3796935,98.2288089 L66.9168029,98.2288089 L66.9168029,93.9124026 Z M52.7488341,79.8459964 L61.0388732,79.8459964 C60.5310582,78.9742472 60.0020921,78.1109746 59.4519591,77.2561526 L61.153131,76.3674808 C61.7625091,77.2815478 62.3634145,78.2463819 62.9558654,79.262012 L61.8513732,79.8459964 L70.6238341,79.8459964 L70.6238341,81.6233401 L52.7488341,81.6233401 L52.7488341,79.8459964 Z M54.1453185,83.9846683 L69.1257873,83.9846683 L69.1257873,85.7112308 L54.1453185,85.7112308 L54.1453185,83.9846683 Z M54.1453185,88.0725589 L69.1257873,88.0725589 L69.1257873,89.7991214 L54.1453185,89.7991214 L54.1453185,88.0725589 Z M74.7878966,78.8811526 L80.9959044,78.8811526 C81.3598386,77.9755491 81.6602913,77.1038131 81.8972716,76.2659183 L83.8777404,76.7991214 C83.5984421,77.518526 83.3064528,78.2125295 83.0017638,78.8811526 L93.1199279,78.8811526 L93.1199279,92.7444339 L91.1648498,92.7444339 L91.1648498,91.9573245 L76.7429748,91.9573245 L76.7429748,92.7444339 L74.7878966,92.7444339 L74.7878966,78.8811526 Z M77.4539123,93.7092776 L79.3835998,93.7092776 L79.3835998,97.4416995 C79.3835998,98.4911839 79.9421879,99.0159183 81.059381,99.0159183 L86.6960998,99.0159183 C88.0502732,99.0159183 88.8373747,98.5504281 89.0574279,97.6194339 C89.2266996,97.0100558 89.3959687,96.087539 89.5652404,94.8518558 C90.1915456,95.1057633 90.8516952,95.3512035 91.5457091,95.5881839 C91.3425831,96.7561585 91.1394601,97.6956022 90.9363341,98.4065433 C90.5470093,100.014624 89.2859542,100.818653 87.153131,100.818653 L80.7546935,100.818653 C78.5541617,100.818653 77.4539123,99.769184 77.4539123,97.6702151 L77.4539123,93.7092776 Z M76.7429748,86.4729495 L91.1648498,86.4729495 L91.1648498,84.340137 L76.7429748,84.340137 L76.7429748,86.4729495 Z M76.7429748,90.230762 L91.1648498,90.230762 L91.1648498,88.0979495 L76.7429748,88.0979495 L76.7429748,90.230762 Z M91.1648498,80.6077151 L76.7429748,80.6077151 L76.7429748,82.715137 L91.1648498,82.715137 L91.1648498,80.6077151 Z M73.6707091,93.4553714 L75.5242248,94.090137 C74.7794294,96.1213972 74.0007913,97.9748943 73.1882873,99.6506839 C72.6466179,99.4137035 72.0203221,99.1682633 71.309381,98.9143558 C72.1388122,97.4416921 72.9259137,95.6220489 73.6707091,93.4553714 Z M91.8757873,94.2678714 L93.3484435,93.1252933 C94.5502724,94.4286852 95.7774737,95.8590094 97.0300841,97.4163089 L95.4050841,98.6604495 C94.2540367,97.1031501 93.0776162,95.638972 91.8757873,94.2678714 Z M81.8972716,93.4299808 L83.2683654,92.262012 C84.3009226,93.2099334 85.4350259,94.3440367 86.6707091,95.6643558 L85.121881,96.9846683 C83.8692706,95.5120046 82.7944115,94.3271207 81.8972716,93.4299808 Z" id="转让-信息" stroke="none" fill="#D4D4D4" fill-rule="evenodd" opacity="0.301630435" transform="translate(71.220514, 71.385059) rotate(-12.000000) translate(-71.220514, -71.385059) "></path>
                            </g>
                        </g>
                    </g>
                </g>
            </g>
        </g>
    </g>
</svg>