<?xml version="1.0" encoding="UTF-8"?>
<svg width="120px" height="120px" viewBox="0 0 120 120" version="1.1" xmlns="http://www.w3.org/2000/svg" xmlns:xlink="http://www.w3.org/1999/xlink">
    <!-- Generator: Sketch 41.2 (35397) - http://www.bohemiancoding.com/sketch -->
    <title>icon_proj_index</title>
    <desc>Created with Sketch.</desc>
    <defs></defs>
    <g id="Page-1" stroke="none" stroke-width="1" fill="none" fill-rule="evenodd">
        <g id="index" transform="translate(-1139.000000, -1600.000000)">
            <g id="Group">
                <g id="为什么选择有娱" transform="translate(0.000000, 1458.000000)">
                    <g id="ICON" transform="translate(120.000000, 142.000000)">
                        <g id="Group-13" transform="translate(1019.000000, 0.000000)">
                            <circle id="Oval-Copy-3" fill="#F5F5F5" cx="60" cy="60" r="60"></circle>
                            <g id="Group-17" transform="translate(24.000000, 36.000000)">
                                <g id="Page-1" transform="translate(11.500000, 0.000000)" stroke="#484B53" stroke-linecap="round" stroke-linejoin="round">
                                    <path d="M0.692121371,49.8341947 L0.692121371,49.8341947 C-0.230707124,48.921259 -0.230707124,47.4399297 0.692121371,46.5263197 L12.3433423,35 L15.6870621,38.3078751 L4.03584116,49.8341947 C3.11233111,50.7471305 1.61563142,50.7471305 0.692121371,49.8341947 Z" id="Stroke-1" stroke-width="2" fill="#ECECEC"></path>
                                    <path d="M46.9986529,21.2068138 C46.9986529,32.5576587 37.7965277,41.759784 26.4456828,41.759784 C15.0948379,41.759784 5.89271258,32.5576587 5.89271258,21.2068138 C5.89271258,9.8559689 15.0948379,0.653843615 26.4456828,0.653843615 C37.7965277,0.653843615 46.9986529,9.8559689 46.9986529,21.2068138 Z" id="Stroke-3" stroke-width="2" fill="#ECECEC"></path>
                                    <path d="M26.4456828,38.0228803 C17.1734905,38.0228803 9.62961625,30.479006 9.62961625,21.2068138 C9.62961625,11.9346216 17.1734905,4.39074728 26.4456828,4.39074728 C35.717875,4.39074728 43.2617493,11.9346216 43.2617493,21.2068138 C43.2617493,30.479006 35.717875,38.0228803 26.4456828,38.0228803 Z" id="Stroke-5" stroke-width="2" fill="#F5F5F5"></path>
                                    <path id="Stroke-7" stroke-width="2"></path>
                                    <path id="Stroke-9" stroke-width="2"></path>
                                    <polygon id="Stroke-11" stroke-width="2" fill="#FFD800" points="34.6860414 19.8091034 18.2046621 19.8091034 20.1246621 15.1026207 32.766869 15.1026207"></polygon>
                                    <polygon id="Stroke-13" stroke-width="2" fill="#FFD800" points="18.2049931 19.8091034 26.157269 30.6215172 34.6863724 19.8091034"></polygon>
                                    <polyline id="Stroke-15" points="26.1576 30.6218483 26.4456 15.1029517 18.2053241 19.8094345"></polyline>
                                    <path d="M26.4456828,15.1026207 L34.6859586,19.8091034" id="Stroke-17"></path>
                                </g>
                                <circle id="Oval-2" fill="#DBDCDE" cx="11" cy="21" r="3"></circle>
                                <circle id="Oval-2-Copy" fill="#DBDCDE" cx="65" cy="21" r="3"></circle>
                                <circle id="Oval-2-Copy-2" fill="#DBDCDE" cx="74" cy="21" r="2"></circle>
                                <circle id="Oval-2-Copy-3" fill="#DBDCDE" cx="2" cy="21" r="2"></circle>
                            </g>
                        </g>
                    </g>
                </g>
            </g>
        </g>
    </g>
</svg>