<?xml version="1.0" encoding="UTF-8"?>
<svg width="120px" height="120px" viewBox="0 0 120 120" version="1.1" xmlns="http://www.w3.org/2000/svg" xmlns:xlink="http://www.w3.org/1999/xlink">
    <!-- Generator: Sketch 41.2 (35397) - http://www.bohemiancoding.com/sketch -->
    <title>icon_market_index</title>
    <desc>Created with Sketch.</desc>
    <defs></defs>
    <g id="Page-1" stroke="none" stroke-width="1" fill="none" fill-rule="evenodd">
        <g id="index" transform="translate(-182.000000, -1153.000000)">
            <g id="Group">
                <g id="影视收益权" transform="translate(0.000000, 1010.000000)">
                    <rect id="Rectangle-Copy-8" fill="#F5F5F5" x="0" y="0" width="1440" height="448"></rect>
                    <g id="ICON" transform="translate(120.000000, 143.000000)">
                        <g id="icon_market_index" transform="translate(62.000000, 0.000000)">
                            <rect id="Rectangle-6" fill="#ECECEC" x="0" y="0" width="120" height="120"></rect>
                            <path d="M56.5551602,45.9228032 L56.5551602,62.5036956 L54.0680263,67.4779634 L54.0680263,82.4007665 L67.3327402,82.4007665 L67.3327402,67.4779634 L64.8456064,62.5036956 L64.8456064,45.9228032 L69.8198741,45.9228032 L60.7003833,31 L51.5808924,45.9228032 L56.5551602,45.9228032 Z M69.8198741,55.042294 L69.8198741,62.5036956 L73.1360526,67.4779634 L73.1360526,82.4007665 L86.4007665,82.4007665 L86.4007665,67.4779634 L78.1103203,62.5036956 L78.1103203,55.042294 L80.5974542,55.042294 L73.9650972,45.0937586 L67.3327402,55.042294 L69.8198741,55.042294 Z M43.2904462,55.042294 L43.2904462,62.5036956 L35,67.4779634 L35,82.4007665 L48.2647139,82.4007665 L48.2647139,67.4779634 L51.5808924,62.5036956 L51.5808924,55.042294 L54.0680263,55.042294 L47.4356693,45.0937586 L40.8033124,55.042294 L43.2904462,55.042294 Z" id="Combined-Shape" stroke="#484B53" stroke-width="2" stroke-linecap="round" stroke-linejoin="round" fill="#F5F5F5"></path>
                        </g>
                    </g>
                </g>
            </g>
        </g>
    </g>
</svg>