<?xml version="1.0" encoding="UTF-8"?>
<svg width="120px" height="120px" viewBox="0 0 120 120" version="1.1" xmlns="http://www.w3.org/2000/svg" xmlns:xlink="http://www.w3.org/1999/xlink">
    <!-- Generator: Sketch 41.2 (35397) - http://www.bohemiancoding.com/sketch -->
    <title>icon_cycle_index</title>
    <desc>Created with Sketch.</desc>
    <defs></defs>
    <g id="Page-1" stroke="none" stroke-width="1" fill="none" fill-rule="evenodd">
        <g id="index" transform="translate(-504.000000, -1153.000000)">
            <g id="Group">
                <g id="影视收益权" transform="translate(0.000000, 1010.000000)">
                    <rect id="Rectangle-Copy-8" fill="#F5F5F5" x="0" y="0" width="1440" height="448"></rect>
                    <g id="ICON" transform="translate(120.000000, 143.000000)">
                        <g id="icon_index" transform="translate(384.000000, 0.000000)">
                            <rect id="Rectangle-6" fill="#ECECEC" x="0" y="0" width="120" height="120"></rect>
                            <g id="Page-1" transform="translate(34.000000, 34.000000)" stroke="#484B53" stroke-width="2" stroke-linecap="round" stroke-linejoin="round">
                                <path d="M26,41.6 C17.3983333,41.6 10.4,34.6025333 10.4,26 C10.4,17.3974667 17.3983333,10.4 26,10.4 C34.6016667,10.4 41.6,17.3974667 41.6,26 C41.6,34.6025333 34.6016667,41.6 26,41.6 Z" id="Stroke-1" fill="#F5F5F5"></path>
                                <path d="M32.5321533,18.78058 C31.73742,16.8687133 29.9026867,15.6545133 27.8486867,15.5999133 C27.1076867,15.5808467 26.3640867,15.5999133 25.62222,15.5999133 C24.4504867,15.5999133 23.2813533,15.5340467 22.17722,16.0107133 C20.2956867,16.8219133 19.0667533,18.76238 19.0667533,20.7999133 C19.0450867,22.9908467 20.5010867,25.0448467 22.5767533,25.74078 C23.6661533,26.1065133 24.8647533,25.9999133 26.0000867,25.9999133 C27.08342,25.9999133 28.2421533,25.8933133 29.28822,26.2131133 C31.44622,26.8752467 32.93342,28.9526467 32.93342,31.1999133 C32.9524867,33.2383133 31.6897533,35.17878 29.8229533,35.9891133 C28.7196867,36.46838 27.54882,36.3999133 26.3770867,36.3999133 C25.6360867,36.3999133 24.89162,36.4198467 24.1514867,36.3999133 C22.0974867,36.34618 20.2618867,35.1311133 19.46802,33.2192467" id="Stroke-3"></path>
                                <path d="M26,13.8666667 L26,38.1333333" id="Stroke-5"></path>
                                <polygon id="Stroke-7" points="43.9109667 1.73333333 46.7995667 10.4 38.1329 7.5114"></polygon>
                                <polygon id="Stroke-9" points="43.9109667 1.73333333 46.7995667 10.4 38.1329 7.5114"></polygon>
                                <polygon id="Stroke-11" fill="#D8D8D8" points="43.9109667 1.73333333 46.7995667 10.4 38.1329 7.5114"></polygon>
                                <polygon id="Stroke-13" fill="#D8D8D8" points="8.9557 51.1333333 6.0671 42.4666667 14.7337667 45.3552667"></polygon>
                                <path d="M40.9241733,4.72350667 C40.1961733,4.21217333 39.45084,3.73464 38.67084,3.30130667 C34.92684,1.19617333 30.6021733,0.000173333333 26.0001733,0.000173333333 C18.8241733,0.000173333333 12.3241733,2.91217333 7.61817333,7.61817333 C2.91217333,12.3241733 0.000173333333,18.8241733 0.000173333333,26.0001733 C0.000173333333,30.66284 1.23084,35.0481733 3.39750667,38.83464" id="Stroke-15"></path>
                                <path d="M12.116,47.9696533 C12.87,48.4471867 13.6586667,48.8891867 14.4646667,49.2956533 C17.94,51.0289867 21.8573333,51.9996533 26,51.9996533 C33.176,51.9996533 39.676,49.0876533 44.382,44.3816533 C49.088,39.67652 52,33.17652 52,25.9996533 C52,21.6238533 50.9166667,17.4889867 48.9926667,13.86632" id="Stroke-17"></path>
                            </g>
                        </g>
                    </g>
                </g>
            </g>
        </g>
    </g>
</svg>