<?xml version="1.0" encoding="UTF-8"?>
<svg width="120px" height="120px" viewBox="0 0 120 120" version="1.1" xmlns="http://www.w3.org/2000/svg" xmlns:xlink="http://www.w3.org/1999/xlink">
    <!-- Generator: Sketch 41.2 (35397) - http://www.bohemiancoding.com/sketch -->
    <title>icon_extra_index</title>
    <desc>Created with Sketch.</desc>
    <defs></defs>
    <g id="Page-1" stroke="none" stroke-width="1" fill="none" fill-rule="evenodd">
        <g id="index" transform="translate(-1139.000000, -1153.000000)">
            <g id="Group">
                <g id="影视收益权" transform="translate(0.000000, 1010.000000)">
                    <rect id="Rectangle-Copy-8" fill="#F5F5F5" x="0" y="0" width="1440" height="448"></rect>
                    <g id="ICON" transform="translate(120.000000, 143.000000)">
                        <rect id="Rectangle-6" fill="#ECECEC" x="1019" y="0" width="120" height="120"></rect>
                        <g id="Page-1" transform="translate(1083.173818, 54.691111) rotate(-7.000000) translate(-1083.173818, -54.691111) translate(1051.173818, 26.691111)" stroke="#484B53" stroke-linecap="round" stroke-linejoin="round">
                            <path d="M30.3157895,53.9692018 C18.5521404,53.9692018 8.98245614,44.4739484 8.98245614,32.8017944 C8.98245614,21.1296403 18.5521404,11.634387 30.3157895,11.634387 C42.0794386,11.634387 51.6491228,21.1296403 51.6491228,32.8017944 C51.6491228,44.4739484 42.0794386,53.9692018 30.3157895,53.9692018 Z" id="Stroke-1" stroke-width="2" fill="#F5F5F5"></path>
                            <path d="M28.0701754,32.8017944 C28.0701754,34.0317321 29.0762105,35.0299425 30.3157895,35.0299425 C31.5553684,35.0299425 32.5614035,34.0317321 32.5614035,32.8017944 C32.5614035,31.5718566 31.5553684,30.5736462 30.3157895,30.5736462 C29.0762105,30.5736462 28.0701754,31.5718566 28.0701754,32.8017944 Z" id="Stroke-3" stroke-width="2"></path>
                            <path d="M25.8245614,19.4329055 C25.8245614,21.8938951 27.8355088,23.8892018 30.3157895,23.8892018 C32.7960702,23.8892018 34.8070175,21.8938951 34.8070175,19.4329055 C34.8070175,16.9719159 32.7960702,14.9766092 30.3157895,14.9766092 C27.8355088,14.9766092 25.8245614,16.9719159 25.8245614,19.4329055 Z" id="Stroke-5" stroke-width="2" fill="#D8D8D8"></path>
                            <path d="M41.7423719,24.4320901 C39.3833544,25.1930027 38.0921263,27.7063538 38.8590035,30.0481375 C39.6247579,32.3888071 42.1589333,33.6688782 44.5179509,32.9079656 C46.8769684,32.1481671 48.1681965,29.634816 47.4013193,27.2930323 C46.6344421,24.9534767 44.1013895,23.6711775 41.7423719,24.4320901 Z" id="Stroke-7" stroke-width="2" fill="#D8D8D8"></path>
                            <path d="M41.8690246,40.998483 C40.4116211,39.0076326 37.6023579,38.5653452 35.5959018,40.0114133 C33.5883228,41.4585956 33.1436912,44.2460089 34.6022175,46.2368593 C36.0596211,48.2277096 38.8688842,48.669997 40.8753404,47.2228148 C42.8817965,45.7756326 43.3264281,42.9893333 41.8690246,40.998483 Z" id="Stroke-9" stroke-width="2" fill="#D8D8D8"></path>
                            <path d="M26.029586,46.2369707 C27.4869895,44.2461203 27.0423579,41.458707 25.0359018,40.0115247 C23.0294456,38.5654566 20.2201825,39.007744 18.7627789,40.9985944 C17.3042526,42.9894447 17.7488842,45.775744 19.7564632,47.2229262 C21.7629193,48.6701084 24.5721825,48.227821 26.029586,46.2369707 Z" id="Stroke-11" stroke-width="2" fill="#D8D8D8"></path>
                            <path d="M16.1135158,32.9084113 C18.4725333,33.6693239 21.0067088,32.3881387 21.773586,30.0485831 C22.5393404,27.7067994 21.2481123,25.1923342 18.8890947,24.4325357 C16.5300772,23.6716231 13.9970246,24.9528083 13.2301474,27.2934779 C12.464393,29.6352616 13.7544982,32.1474987 16.1135158,32.9084113 Z" id="Stroke-13" stroke-width="2" fill="#D8D8D8"></path>
                            <path id="Stroke-15" stroke-width="2"></path>
                            <path id="Stroke-17" stroke-width="2"></path>
                            <path id="Stroke-19" stroke-width="2"></path>
                            <path id="Stroke-21" stroke-width="2"></path>
                            <path id="Stroke-23" stroke-width="2"></path>
                            <path d="M0,53.9692018 L30.3157895,53.9692018" id="Stroke-25" stroke-width="2"></path>
                            <path d="M2.24561404,45.0566092 L2.24561404,53.9692018" id="Stroke-27" stroke-width="2"></path>
                            <path d="M12.9347368,45.0566092 L-2.50111043e-12,45.0566092" id="Stroke-29" stroke-width="2"></path>
                            <path d="M10.1052632,45.0566092 L10.1052632,53.9692018" id="Stroke-31" stroke-width="2"></path>
                            <path d="M49.676014,7.71875081 L53.6226807,7.71875081" id="Stroke-33" stroke-width="1.5"></path>
                            <path d="M51.6491228,9.67595615 L51.6491228,5.75998578" id="Stroke-35" stroke-width="1.5"></path>
                            <path d="M60.6315789,14.482963 L63.2308772,14.482963" id="Stroke-37"></path>
                            <path d="M61.754386,15.9490844 L61.754386,13.3688889" id="Stroke-39"></path>
                            <path d="M4.49122807,9.11089778 L6.93557895,6.68444444" id="Stroke-41"></path>
                            <path d="M6.93557895,9.11089778 L4.49122807,6.68444444" id="Stroke-43"></path>
                            <path d="M16.4581053,1.48060444 C16.4581053,2.29833481 15.7900351,2.96120889 14.9658947,2.96120889 C14.1417544,2.96120889 13.4736842,2.29833481 13.4736842,1.48060444 C13.4736842,0.663988148 14.1417544,-6.53699317e-13 14.9658947,-6.53699317e-13 C15.7900351,-6.53699317e-13 16.4581053,0.663988148 16.4581053,1.48060444 Z" id="Stroke-45"></path>
                        </g>
                    </g>
                </g>
            </g>
        </g>
    </g>
</svg>