<?xml version="1.0" encoding="UTF-8"?>
<svg width="120px" height="120px" viewBox="0 0 120 120" version="1.1" xmlns="http://www.w3.org/2000/svg" xmlns:xlink="http://www.w3.org/1999/xlink">
    <!-- Generator: Sketch 41.2 (35397) - http://www.bohemiancoding.com/sketch -->
    <title>icon_inmagination_index</title>
    <desc>Created with Sketch.</desc>
    <defs></defs>
    <g id="Page-1" stroke="none" stroke-width="1" fill="none" fill-rule="evenodd">
        <g id="index" transform="translate(-817.000000, -1153.000000)">
            <g id="Group">
                <g id="影视收益权" transform="translate(0.000000, 1010.000000)">
                    <rect id="Rectangle-Copy-8" fill="#F5F5F5" x="0" y="0" width="1440" height="448"></rect>
                    <g id="ICON" transform="translate(120.000000, 143.000000)">
                        <rect id="Rectangle-6" fill="#ECECEC" x="697" y="0" width="120" height="120"></rect>
                        <g id="Page-1" transform="translate(734.000000, 33.000000)" stroke-linecap="round" stroke="#484B53" stroke-linejoin="round">
                            <g transform="translate(0.293919, 0.036064)">
                                <path d="M24.8925145,52.352132 L19.7423391,52.352132 C17.8462162,52.352132 16.3088888,50.8398309 16.3088888,48.9745751 L16.3088888,43.0638505 L28.3259648,43.0638505 L28.3259648,48.9745751 C28.3259648,50.8398309 26.7886374,52.352132 24.8925145,52.352132 Z" id="Stroke-1" stroke-width="2" fill="#D8D8D8"></path>
                                <path d="M23.1757894,48.4571059 L28.3259648,48.4571059" id="Stroke-3"></path>
                                <path d="M23.1757894,46.0933446 L28.3259648,46.0933446" id="Stroke-5"></path>
                                <path d="M11.8209401,36.370546 C7.13084704,33.0596958 4.12486133,27.5939644 4.29910893,21.4468108 C4.55747606,12.3214965 12.0698653,4.72959293 21.3367476,4.24744668 C31.7392435,3.7053488 40.3434699,11.8393502 40.3434699,21.9542887 C40.3434699,27.9021664 37.3675269,33.1644001 32.7967462,36.3823674 C32.0061943,36.9388199 31.4928935,37.795875 31.3855982,38.7458129 L31.1538403,40.8086557 C31.0096354,42.0921274 29.9074978,43.0640194 28.5950615,43.0640194 L16.0397922,43.0640194 C14.7273558,43.0640194 13.6252182,42.0921274 13.4810133,40.8086557 L13.2492554,38.7475016 C13.1419601,37.7908086 12.6175006,36.9320648 11.8209401,36.370546 Z" id="Stroke-7" stroke-width="2" fill="#F5F5F5"></path>
                                <path d="M16.9644157,10.3135279 C17.112054,10.240066 17.2614091,10.168293 17.4116226,10.0998974" id="Stroke-9" stroke-width="2"></path>
                                <path d="M8.92224508,22.7228408 C8.97546356,20.8694065 9.39262777,19.0970335 10.1076438,17.4749618 C10.8226598,15.8528901 11.8346693,14.3811197 13.0741448,13.1288905 C13.5059012,12.6931856 13.9651252,12.2836568 14.4492417,11.9036817" id="Stroke-11" stroke-width="2"></path>
                                <path d="M22.3174268,0 L22.3174268,1.68877845" id="Stroke-13" stroke-width="2"></path>
                                <path d="M44.6348536,21.9541199 L42.9181285,21.9541199" id="Stroke-15" stroke-width="2"></path>
                                <path d="M1.71672514,21.9541199 L0,21.9541199" id="Stroke-17" stroke-width="2"></path>
                                <path d="M38.098251,6.43019283 L36.8845263,7.62415919" id="Stroke-19" stroke-width="2"></path>
                                <path d="M7.75041315,7.62424363 L6.53668847,6.43027727" id="Stroke-25" stroke-width="2"></path>
                                <path d="M30.858306,1.67146847 L30.2008003,3.23189976" id="Stroke-27" stroke-width="2"></path>
                                <path d="M3.28503939,14.1987426 L1.69878536,13.5519404" id="Stroke-31" stroke-width="2"></path>
                                <path d="M42.9357249,13.5522782 L41.3494709,14.1990803" id="Stroke-33" stroke-width="2"></path>
                                <path d="M14.4337099,3.231562 L13.7762042,1.67113072" id="Stroke-37" stroke-width="2"></path>
                                <path id="Stroke-39" stroke-width="2"></path>
                                <path id="Stroke-41" stroke-width="2"></path>
                                <path id="Stroke-43" stroke-width="2"></path>
                                <path id="Stroke-45" stroke-width="2"></path>
                                <path id="Stroke-47" stroke-width="2"></path>
                                <path id="Stroke-49" stroke-width="2"></path>
                                <path id="Stroke-51" stroke-width="2"></path>
                                <path id="Stroke-53" stroke-width="2"></path>
                                <path id="Stroke-55" stroke-width="2"></path>
                                <path id="Stroke-57" stroke-width="2"></path>
                                <path id="Stroke-59" stroke-width="2"></path>
                                <path id="Stroke-61" stroke-width="2"></path>
                                <path id="Stroke-63" stroke-width="2"></path>
                                <path id="Stroke-65" stroke-width="2"></path>
                                <path id="Stroke-67" stroke-width="2"></path>
                            </g>
                        </g>
                    </g>
                </g>
            </g>
        </g>
    </g>
</svg>