<?xml version="1.0" encoding="UTF-8"?>
<svg width="14px" height="14px" viewBox="0 0 14 14" version="1.1" xmlns="http://www.w3.org/2000/svg" xmlns:xlink="http://www.w3.org/1999/xlink">
    <!-- Generator: Sketch 42 (36781) - http://www.bohemiancoding.com/sketch -->
    <title>icon_state_tag_1@1x</title>
    <desc>Created with Sketch.</desc>
    <defs></defs>
    <g id="Page-1" stroke="none" stroke-width="1" fill="none" fill-rule="evenodd">
        <g id="项目详情页_出让中的份额_项目不同状态" transform="translate(-640.000000, -130.000000)" fill="#FFD800">
            <g id="proj_info" transform="translate(0.000000, 70.000000)">
                <g id="progress-copy" transform="translate(640.000000, 59.000000)">
                    <g id="Page-1" transform="translate(1.000000, 1.000000)">
                        <g id="Group-5" transform="translate(0.909091, 0.560000)" fill-rule="nonzero">
                            <path d="M6.34033012,1.2805322 L9.19081818,4.14450807 L9.19081818,11.3996545 L3.39081818,11.3996545 C3.11467581,11.3996545 2.89081818,11.6101789 2.89081818,11.8698739 C2.89081818,12.1295689 3.11467581,12.3400933 3.39081818,12.3400933 L9.69081818,12.3400933 C9.96696056,12.3400933 10.1908182,12.1295689 10.1908182,11.8698739 L10.1908182,3.95877672 C10.1908182,3.83944173 10.1425718,3.72457073 10.0558581,3.63744667 L6.92222171,0.488982716 C6.82768376,0.393997436 6.69552425,0.340093333 6.55718182,0.340093333 L1.29081818,0.340093333 C1.01467581,0.340093333 0.790818182,0.550617746 0.790818182,0.810312769 L0.790818182,4.49683315 C0.790818182,4.75652817 1.01467581,4.96705258 1.29081818,4.96705258 C1.56696056,4.96705258 1.79081818,4.75652817 1.79081818,4.49683315 L1.79081818,1.2805322 L6.34033012,1.2805322 Z" id="Stroke-1"></path>
                            <path d="M6.75436364,1.23190667 C6.75436364,0.955764292 6.53050601,0.731906667 6.25436364,0.731906667 C5.97822126,0.731906667 5.75436364,0.955764292 5.75436364,1.23190667 L5.75436364,4.36790667 C5.75436364,4.64404904 5.97822126,4.86790667 6.25436364,4.86790667 L9.30890909,4.86790667 C9.58505147,4.86790667 9.80890909,4.64404904 9.80890909,4.36790667 C9.80890909,4.09176429 9.58505147,3.86790667 9.30890909,3.86790667 L6.75436364,3.86790667 L6.75436364,1.23190667 Z" id="Stroke-3"></path>
                        </g>
                        <polygon id="Fill-6" points="2.683 8.06334667 1.06209091 11.1797467 1.00027273 13.16028 2.55845455 12.02348 4.17936364 8.90708 5.79936364 5.79068 5.05118182 5.36881333 4.30390909 4.94601333"></polygon>
                    </g>
                </g>
            </g>
        </g>
    </g>
</svg>