<?xml version="1.0" encoding="UTF-8"?>
<svg width="40px" height="36px" viewBox="0 0 40 36" version="1.1" xmlns="http://www.w3.org/2000/svg" xmlns:xlink="http://www.w3.org/1999/xlink">
    <!-- Generator: Sketch 41.2 (35397) - http://www.bohemiancoding.com/sketch -->
    <title>icon_safe_progress</title>
    <desc>Created with Sketch.</desc>
    <defs></defs>
    <g id="Page-1" stroke="none" stroke-width="1" fill="none" fill-rule="evenodd" stroke-linecap="round">
        <g id="项目详情页_出让中的份额" transform="translate(-355.000000, -509.000000)" stroke-width="1.5">
            <g id="progress" transform="translate(0.000000, 481.000000)">
                <g id="Group-4" transform="translate(355.000000, 25.000000)">
                    <g id="icon_safe" transform="translate(1.000000, 5.000000)">
                        <g id="Page-1" stroke-linejoin="round">
                            <path d="M31.8592725,15.8817276 C31.8592725,24.6526763 24.7270434,31.7634551 15.9296363,31.7634551 C7.13222914,31.7634551 0,24.6526763 0,15.8817276 C0,7.11077883 7.13222914,0 15.9296363,0 C24.7270434,0 31.8592725,7.11077883 31.8592725,15.8817276 Z" id="Stroke-1" stroke="#2D2F33" fill="#F3F3F5"></path>
                            <path d="M12.743709,24.3519823 C14.4364984,24.3519823 16.5763795,24.6600878 18.0939428,23.761182 C19.3746856,23.0052118 20.1775393,21.6002083 20.1775393,20.1168549 C20.1775393,18.0861114 18.7364382,16.4725278 16.7930225,16.0394861 C15.4867924,15.7483211 14.1646326,15.7440859 13.1175245,14.8208282 C12.2105972,14.0214479 11.6817333,12.8536115 11.6817333,11.6466002 C11.6817333,9.89219872 12.8679602,8.27861519 14.5235804,7.66346295 C15.9158306,7.14677741 17.650037,7.41147287 19.1155635,7.41147287" id="Stroke-3" stroke="#2D2F33"></path>
                            <path d="M15.5897436,4.99512096 L15.5897436,7.11268463" id="Stroke-5" stroke="#484B53"></path>
                            <path d="M15.5897436,25.1119759 L15.5897436,27.2295396" id="Stroke-7" stroke="#484B53"></path>
                        </g>
                        <g id="Group-2" transform="translate(25.831843, 18.886379)" stroke="#2D2F33">
                            <path d="M0,1.96222117 C2.16732674,1.96222117 4.11259335,0.918319506 5.47681923,0 C6.84104511,0.918319506 8.78631172,1.96222117 10.9536385,1.96222117 L10.9536385,8.61120759 C10.9536385,10.8947425 8.70316365,12.8564731 5.47681923,13.7355482 C2.25047481,12.8564731 0,10.8947425 0,8.61120759 L0,1.96222117 Z" id="Page-1" stroke-linejoin="round" fill="#FFFFFF"></path>
                            <polyline id="Path-3" points="3.44424568 6.60928727 5.01010204 8.1704343 8.03881468 5.15083056"></polyline>
                        </g>
                    </g>
                </g>
            </g>
        </g>
    </g>
</svg>