<?xml version="1.0" encoding="UTF-8"?>
<svg width="42px" height="42px" viewBox="0 0 42 42" version="1.1" xmlns="http://www.w3.org/2000/svg" xmlns:xlink="http://www.w3.org/1999/xlink">
    <!-- Generator: Sketch 41.2 (35397) - http://www.bohemiancoding.com/sketch -->
    <title>btn_share_weibo_nor</title>
    <desc>Created with Sketch.</desc>
    <defs>
        <polygon id="path-1" points="9.21713526 0.664114286 0.498836364 0.664114286 0.498836364 9.85622857 9.21713526 9.85622857 9.21713526 0.664114286"></polygon>
    </defs>
    <g id="Page-1" stroke="none" stroke-width="1" fill="none" fill-rule="evenodd">
        <g id="btn" transform="translate(-676.000000, -110.000000)">
            <g id="btn_share_weibo" transform="translate(677.000000, 111.000000)">
                <circle id="Oval-Copy" stroke="#484B53" cx="20" cy="20" r="20"></circle>
                <g id="Page-1" transform="translate(8.000000, 9.600000)">
                    <path d="M9.31265455,18.8006 C5.42101818,18.9863143 2.27556364,16.9932286 2.27556364,14.3404857 C2.27556364,11.6847714 5.42101818,9.55574286 9.31265455,9.37225714 C13.2064727,9.18951429 16.3584727,10.8282571 16.3584727,13.4780286 C16.3584727,16.1300286 13.2064727,18.6200857 9.31265455,18.8006 M17.5992,10.1827143 C16.6748364,9.99997143 17.1235636,9.49185714 17.1235636,9.49185714 C17.1235636,9.49185714 18.0282909,7.969 16.9446545,6.86214286 C15.6021091,5.49082857 12.3395636,7.03671429 12.3395636,7.03671429 C11.0930182,7.43117143 11.4232,6.8562 11.5999273,5.87711429 C11.5999273,4.72345714 11.2130182,2.77122857 7.89301818,3.92488571 C4.57665455,5.08374286 1.72938182,9.14568571 1.72938182,9.14568571 C-0.250254545,11.8444857 0.0115636364,13.9304286 0.0115636364,13.9304286 C0.506109091,18.5361429 5.29665455,19.7997429 9.02247273,20.0991143 C12.9424727,20.4133429 18.2333818,18.7188857 19.8377455,15.2386 C21.4413818,11.7516286 18.5264727,10.3721429 17.5992,10.1827143" id="Fill-1" fill="#4D4D4D"></path>
                    <path d="M9.85629091,14.3696057 C9.60901818,14.5582914 9.30429091,14.5322914 9.17338182,14.30572 C9.03738182,14.0850914 9.08829091,13.7307486 9.33847273,13.5442914 C9.62865455,13.3236629 9.93047273,13.3875486 10.0606545,13.60892 C10.1915636,13.8347486 10.0984727,14.1749771 9.85629091,14.3696057 M7.54938182,16.3775486 C6.81847273,16.4644629 6.22938182,16.0343486 6.22938182,15.4096057 C6.22938182,14.7878343 6.75229091,14.1370914 7.48392727,14.0590914 C8.3232,13.9773771 8.86938182,14.4713771 8.86938182,15.09612 C8.86938182,15.7178914 8.27738182,16.2928629 7.54938182,16.3775486 M8.53629091,11.1210914 C4.62210909,11.5890914 5.07447273,15.3338343 5.07447273,15.3338343 C5.07447273,15.3338343 5.03447273,16.5201771 6.12392727,17.12412 C8.41410909,18.3906914 10.7719273,17.62332 11.9639273,16.0521771 C13.1559273,14.4802914 12.4562909,10.6568057 8.53629091,11.1210914" id="Fill-3" fill="#4D4D4D"></path>
                    <path d="M19.5047273,8.56165143 C19.8203636,8.56165143 20.088,8.32319429 20.1330909,8.01268 C20.1389091,7.98890857 20.1418182,7.96885143 20.1418182,7.94285143 C20.6196364,3.55256571 16.6203636,4.30805143 16.6203636,4.30805143 C16.2647273,4.30805143 15.9803636,4.60148 15.9803636,4.96770857 C15.9803636,5.32799429 16.2647273,5.62142286 16.6203636,5.62142286 C19.4930909,4.97365143 18.8589091,7.90793714 18.8589091,7.90793714 C18.8589091,8.27119429 19.1483636,8.56165143 19.5047273,8.56165143" id="Fill-5" fill="#4D4D4D"></path>
                    <g id="Group-9" transform="translate(14.545455, 0.078966)">
                        <mask id="mask-2" fill="white">
                            <use xlink:href="#path-1"></use>
                        </mask>
                        <g id="Clip-8"></g>
                        <path d="M4.49301818,0.820114286 C3.11047273,0.489542857 1.68792727,0.774057143 1.28938182,0.852057143 C1.25883636,0.855028571 1.22974545,0.884742857 1.20138182,0.890685714 C1.18756364,0.893657143 1.17883636,0.908514286 1.17883636,0.908514286 C0.786109091,1.02142857 0.498836364,1.39285714 0.498836364,1.83188571 C0.498836364,2.35485714 0.914109091,2.78571429 1.43192727,2.78571429 C1.43192727,2.78571429 1.9352,2.71662857 2.27701818,2.57994286 C2.6152,2.44102857 5.4792,2.47594286 6.90247273,4.91697143 C7.67847273,6.6976 7.24356364,7.88988571 7.18901818,8.0808 C7.18901818,8.0808 7.00429091,8.5436 7.00429091,8.99971429 C7.00429091,9.52565714 7.41956364,9.85622857 7.93374545,9.85622857 C8.36429091,9.85622857 8.72501818,9.79605714 8.83047273,9.0532 L8.83629091,9.0532 C10.3635636,3.8532 6.9672,1.40994286 4.49301818,0.820114286" id="Fill-7" fill="#4D4D4D" mask="url(#mask-2)"></path>
                    </g>
                </g>
            </g>
        </g>
    </g>
</svg>