<?xml version="1.0" encoding="UTF-8"?>
<svg width="42px" height="42px" viewBox="0 0 42 42" version="1.1" xmlns="http://www.w3.org/2000/svg" xmlns:xlink="http://www.w3.org/1999/xlink">
    <!-- Generator: Sketch 41.2 (35397) - http://www.bohemiancoding.com/sketch -->
    <title>btn_share_weixin_pre</title>
    <desc>Created with Sketch.</desc>
    <defs>
        <polygon id="path-1" points="0.57112 14.4 15.93432 14.4 15.93432 0.37864 0.57112 0.37864 0.57112 14.4"></polygon>
    </defs>
    <g id="Page-1" stroke="none" stroke-width="1" fill="none" fill-rule="evenodd">
        <g id="btn" transform="translate(-606.000000, -196.000000)">
            <g id="btn_share_weixin-copy" transform="translate(607.000000, 197.000000)">
                <g id="Group">
                    <circle id="Oval" stroke="#484B53" fill="#484B53" cx="20" cy="20" r="20"></circle>
                    <path d="M13.3016,15.702 C12.624,15.702 11.9408,15.2484 11.9408,14.5708 C11.9408,13.8908 12.624,13.4428 13.3016,13.4428 C13.9792,13.4428 14.4296,13.8908 14.4296,14.5708 C14.4296,15.2484 13.9792,15.702 13.3016,15.702 M19.6264,13.4428 C20.3072,13.4428 20.7576,13.8908 20.7576,14.5708 C20.7576,15.2484 20.3072,15.702 19.6264,15.702 C18.9496,15.702 18.2696,15.2484 18.2696,14.5708 C18.2696,13.8908 18.9496,13.4428 19.6264,13.4428 M24.4856,15.8932 C24.7792,15.8932 25.0688,15.9148 25.356,15.9468 C24.5744,12.3052 20.6816,9.6004 16.2376,9.6004 C11.2696,9.6004 7.2,12.986 7.2,17.286 C7.2,19.7684 8.5536,21.8068 10.8168,23.3876 L9.9128,26.106 L13.072,24.522 C14.2024,24.746 15.1096,24.9756 16.2376,24.9756 C16.5208,24.9756 16.8024,24.962 17.0816,24.9396 C16.9048,24.3356 16.8024,23.7028 16.8024,23.046 C16.8024,19.098 20.1928,15.8932 24.4856,15.8932" id="Fill-1" fill="#FFFFFF"></path>
                </g>
                <g id="Group-5" transform="translate(16.800000, 16.000000)">
                    <mask id="mask-2" fill="white">
                        <use xlink:href="#path-1"></use>
                    </mask>
                    <g id="Clip-4"></g>
                    <path d="M10.73672,5.80664 C10.28952,5.80664 9.83912,5.35864 9.83912,4.90264 C9.83912,4.45224 10.28952,3.99864 10.73672,3.99864 C11.41432,3.99864 11.86792,4.45224 11.86792,4.90264 C11.86792,5.35864 11.41432,5.80664 10.73672,5.80664 M5.76552,5.80664 C5.31592,5.80664 4.86152,5.35864 4.86152,4.90264 C4.86152,4.45224 5.31592,3.99864 5.76552,3.99864 C6.44952,3.99864 6.89672,4.45224 6.89672,4.90264 C6.89672,5.35864 6.44952,5.80664 5.76552,5.80664 M15.93432,6.93784 C15.93432,3.32424 12.31912,0.37864 8.25752,0.37864 C3.95752,0.37864 0.57112,3.32424 0.57112,6.93784 C0.57112,10.55704 3.95752,13.49624 8.25752,13.49624 C9.15752,13.49624 10.06552,13.26904 10.96952,13.04264 L13.44872,14.40024 L12.76872,12.14104 C14.58312,10.78024 15.93432,8.97544 15.93432,6.93784" id="Fill-3" fill="#FFFFFF" mask="url(#mask-2)"></path>
                </g>
            </g>
        </g>
    </g>
</svg>