<?xml version="1.0" encoding="UTF-8"?>
<svg width="14px" height="14px" viewBox="0 0 14 14" version="1.1" xmlns="http://www.w3.org/2000/svg" xmlns:xlink="http://www.w3.org/1999/xlink">
    <!-- Generator: Sketch 42 (36781) - http://www.bohemiancoding.com/sketch -->
    <title>icon_state_tag_3_black@1x</title>
    <desc>Created with Sketch.</desc>
    <defs></defs>
    <g id="Page-1" stroke="none" stroke-width="1" fill="none" fill-rule="evenodd">
        <g id="项目列表页_项目不同状态" transform="translate(-640.000000, -182.000000)" fill-rule="nonzero" fill="#484B53">
            <g id="proj_info" transform="translate(640.000000, 129.000000)">
                <g id="progress-copy-2" transform="translate(0.000000, 52.000000)">
                    <g id="Page-1" transform="translate(2.000000, 1.000000)">
                        <path d="M2.53690083,7.64071642 C2.38784955,7.97194148 2.23634343,8.22236478 1.8917653,8.7432362 C1.41212507,9.46824026 1.24016748,9.78587375 1.14738573,10.1949551 C0.991396527,10.8785862 1.22698717,11.6277371 1.7521154,12.0996393 C2.32281894,12.6120023 3.3567041,12.8801942 4.68175895,12.9420581 C4.80904143,12.9477009 4.93639827,12.9515522 5.05942865,12.9534807 C6.38727217,12.9751656 7.52698783,12.6646544 8.28031152,12.0073976 C9.15961785,11.2413719 9.54900879,10.0734183 9.25139999,9.0521604 C9.16976314,8.77368877 9.0369234,8.55838789 8.67291248,8.06934195 C8.2331853,7.47857177 8.05716028,7.1915406 7.93564693,6.7598075 C7.8595762,6.4906101 7.82825967,6.21984473 7.8417038,5.95741254 C7.7215646,6.13646883 7.65472814,6.34454563 7.62771023,6.60444314 C7.58641693,7.00166197 7.07512853,7.19706489 6.73403898,6.94598417 L6.67890358,6.90539765 C5.92404094,6.34963558 5.56671069,6.06177165 5.18864848,5.66835666 C4.65194193,5.10985492 4.29646708,4.50829102 4.17916728,3.87623835 C4.13958156,3.659337 4.12907442,3.44322985 4.14596588,3.23113346 C3.94732936,3.58901652 3.86466422,3.98978395 3.91405237,4.37830466 C3.93967563,4.58096139 3.98973044,4.76185142 4.11454503,5.13722912 L4.12384232,5.16517898 C4.23798792,5.50826237 4.28578443,5.66643991 4.33002064,5.87435016 C4.52241066,6.77761673 4.34050433,7.71420883 3.81923664,8.52394506 C3.49073352,9.03424115 2.63154165,8.69500118 2.81751423,8.12842889 C2.94652215,7.73540149 2.9314134,7.30864406 2.77774355,6.91961303 C2.72600728,7.15887781 2.64496003,7.40062187 2.53690083,7.64071642 Z M7.26821786,5.01632322 C7.72237059,4.60467859 8.33670263,4.32464301 8.99333129,4.22696271 C9.55811188,4.14294576 9.87087453,4.80136494 9.41635636,5.11750326 C8.99293348,5.41201338 8.8409272,5.94434267 9.0011845,6.51145856 C9.08088491,6.79463098 9.21475127,7.0129171 9.5838852,7.50884577 C10.0164939,8.09005228 10.1903485,8.37182832 10.3145094,8.79535596 C10.7171087,10.1768905 10.2036984,11.7168322 9.04168547,12.7291434 C8.05142884,13.5931188 6.63377692,13.9793526 5.04006865,13.9533257 C4.90578898,13.951221 4.76688995,13.9470207 4.6267526,13.9408062 C3.05421604,13.8673895 1.7905629,13.5395954 0.978995757,12.8109911 C0.184035599,12.0966069 -0.160185656,11.0020232 0.0701809088,9.9924311 C0.19644292,9.43573041 0.405553306,9.04946971 0.939641233,8.24216495 C1.2648793,7.75052883 1.39805541,7.53040306 1.51881042,7.26205859 C1.82304909,6.58607684 1.82213433,5.94532982 1.4868683,5.51570589 C1.15340695,5.08839455 1.67558018,4.54179716 2.18770361,4.78208967 C2.52113529,4.93853856 2.80636596,5.14600123 3.05343096,5.40197098 C2.91588318,4.98685812 2.85605307,4.76777466 2.82128615,4.4927992 C2.72210928,3.71260781 2.97337036,2.9115545 3.5140923,2.27597172 C4.04653383,1.64860239 4.85134571,1.19379469 5.7410587,1.01250521 C6.33362053,0.891763773 6.67259768,1.6046355 6.16988011,1.91432015 C5.47546502,2.34209454 5.13825586,3.02175089 5.26408526,3.71121709 C5.34364141,4.13988616 5.60420211,4.58082848 6.01705152,5.01044334 C6.22974026,5.23176919 6.44294752,5.42061646 6.7652918,5.67216834 C6.88487636,5.43181942 7.05032833,5.21440423 7.26821786,5.01632322 Z" id="Stroke-1"></path>
                        <path d="M5.19600636,9.06633268 C5.09266283,9.25423003 5.02929492,9.44877648 5.00324299,9.65048264 C4.9077952,10.3894837 5.31034364,11.2123753 6.05094367,12.0395885 C6.28859962,12.3050383 6.54384228,12.55099 6.79896229,12.7707416 C6.95129776,12.9019581 7.06869872,12.9945102 7.13349404,13.0420423 C7.29766948,13.162477 7.25769347,13.3991807 7.06133707,13.4692941 C6.93123873,13.5157485 6.70633097,13.5831731 6.41144865,13.650101 C5.70473825,13.8104995 4.98019136,13.8765269 4.29529881,13.792577 C3.93943813,13.7489578 3.60606779,13.6651312 3.3002363,13.5365803 C2.40208347,13.1596429 2.68540756,11.9537929 3.62365249,10.3015455 C3.92798416,9.76561802 4.28702525,9.22333246 4.56282333,8.86697745 C4.71231212,8.67382499 4.80084357,8.57556774 4.89092022,8.53172389 C5.07280178,8.46766362 5.07280178,8.46766362 5.30166525,8.69013662 C5.31138294,8.8137052 5.31138294,8.8137052 5.29359222,8.86065925 C5.27664626,8.9113524 5.24473083,8.97767265 5.19600636,9.06633268 Z M4.11237251,10.5309045 C3.33820151,11.8942181 3.10132307,12.9023917 3.53091118,13.0826816 C3.78453163,13.1892865 4.06510264,13.2598365 4.36879097,13.2970608 C4.97486391,13.3713495 5.63344417,13.3113336 6.27822413,13.1649912 C6.32724059,13.1538661 6.3740409,13.1427575 6.41846806,13.1317925 C6.14785204,12.8985432 5.8774049,12.6378353 5.62437439,12.3552128 C4.91707757,11.5651976 4.47912064,10.7638121 4.44163606,9.98215922 C4.32930661,10.1600308 4.21743133,10.3458962 4.11237251,10.5309045 Z" id="Stroke-3"></path>
                    </g>
                </g>
            </g>
        </g>
    </g>
</svg>