<?xml version="1.0" encoding="UTF-8"?>
<svg width="14px" height="14px" viewBox="0 0 14 14" version="1.1" xmlns="http://www.w3.org/2000/svg" xmlns:xlink="http://www.w3.org/1999/xlink">
    <!-- Generator: Sketch 42 (36781) - http://www.bohemiancoding.com/sketch -->
    <title>icon_state_tag_4_black@1x</title>
    <desc>Created with Sketch.</desc>
    <defs></defs>
    <g id="Page-1" stroke="none" stroke-width="1" fill="none" fill-rule="evenodd">
        <g id="项目列表页_项目不同状态" transform="translate(-640.000000, -208.000000)">
            <g id="proj_info" transform="translate(640.000000, 129.000000)">
                <g id="progress-copy-3" transform="translate(0.000000, 78.000000)">
                    <g id="Page-1" transform="translate(1.000000, 2.000000)">
                        <path d="M12,6 C12,9.31384615 9.31384615,12 6,12 C2.68615385,12 0,9.31384615 0,6 C0,2.68615385 2.68615385,0 6,0 C9.31384615,0 12,2.68615385 12,6 Z" id="Stroke-1" stroke="#484B53" stroke-linecap="round" stroke-linejoin="round"></path>
                        <path d="M7,3 C7,3.55266667 6.55266667,4 6,4 C5.44733333,4 5,3.55266667 5,3 C5,2.44733333 5.44733333,2 6,2 C6.55266667,2 7,2.44733333 7,3 Z" id="Stroke-3" stroke="#484B53" stroke-linecap="round" stroke-linejoin="round"></path>
                        <path d="M7,9 C7,9.55266667 6.55266667,10 6,10 C5.44733333,10 5,9.55266667 5,9 C5,8.44733333 5.44733333,8 6,8 C6.55266667,8 7,8.44733333 7,9 Z" id="Stroke-5" stroke="#484B53" stroke-linecap="round" stroke-linejoin="round"></path>
                        <path d="M9,7 C8.44733333,7 8,6.55266667 8,6 C8,5.44733333 8.44733333,5 9,5 C9.55266667,5 10,5.44733333 10,6 C10,6.55266667 9.55266667,7 9,7 Z" id="Stroke-7" stroke="#484B53" stroke-linecap="round" stroke-linejoin="round"></path>
                        <path d="M3,7 C2.44733333,7 2,6.55266667 2,6 C2,5.44733333 2.44733333,5 3,5 C3.55266667,5 4,5.44733333 4,6 C4,6.55266667 3.55266667,7 3,7 Z" id="Stroke-9" stroke="#484B53" stroke-linecap="round" stroke-linejoin="round"></path>
                        <path d="M6.5,6 C6.5,6.276 6.276,6.5 6,6.5 C5.724,6.5 5.5,6.276 5.5,6 C5.5,5.724 5.724,5.5 6,5.5 C6.276,5.5 6.5,5.724 6.5,6" id="Fill-11" fill="#484B53"></path>
                    </g>
                </g>
            </g>
        </g>
    </g>
</svg>