<?xml version="1.0" encoding="UTF-8"?>
<svg width="49px" height="58px" viewBox="0 0 49 58" version="1.1" xmlns="http://www.w3.org/2000/svg" xmlns:xlink="http://www.w3.org/1999/xlink">
    <!-- Generator: Sketch 41.2 (35397) - http://www.bohemiancoding.com/sketch -->
    <title>icon_imagenation_why_new</title>
    <desc>Created with Sketch.</desc>
    <defs></defs>
    <g id="Page-1" stroke="none" stroke-width="1" fill="none" fill-rule="evenodd">
        <g id="新人指南" transform="translate(-841.000000, -877.000000)">
            <g id="为什么投资可转让.." transform="translate(206.000000, 766.000000)">
                <g id="ICON" transform="translate(0.000000, 105.000000)">
                    <g id="Group-4" transform="translate(578.666667, 6.000000)">
                        <g id="icon_imagenation_why_new" transform="translate(57.000000, 4.000000)">
                            <g id="Page-1" transform="translate(0.293919, 0.036064)">
                                <path d="M18.8209401,36.370546 C14.130847,33.0596958 11.1248613,27.5939644 11.2991089,21.4468108 C11.5574761,12.3214965 19.0698653,4.72959293 28.3367476,4.24744668 C38.7392435,3.7053488 47.3434699,11.8393502 47.3434699,21.9542887 C47.3434699,27.9021664 44.3675269,33.1644001 39.7967462,36.3823674 C39.0061943,36.9388199 38.4928935,37.795875 38.3855982,38.7458129 L38.1538403,40.8086557 C38.0096354,42.0921274 36.9074978,43.0640194 35.5950615,43.0640194 L23.0397922,43.0640194 C21.7273558,43.0640194 20.6252182,42.0921274 20.4810133,40.8086557 L20.2492554,38.7475016 C20.1419601,37.7908086 19.6175006,36.9320648 18.8209401,36.370546 Z" id="Stroke-7" fill="#FFD800"></path>
                                <path d="M24.8925145,52.352132 L19.7423391,52.352132 C17.8462162,52.352132 16.3088888,50.8398309 16.3088888,48.9745751 L16.3088888,43.0638505 L28.3259648,43.0638505 L28.3259648,48.9745751 C28.3259648,50.8398309 26.7886374,52.352132 24.8925145,52.352132 Z" id="Stroke-1" stroke="#484B53" stroke-width="2" stroke-linecap="round" stroke-linejoin="round" fill="#F3F3F5"></path>
                                <path d="M23.1757894,48.4571059 L28.3259648,48.4571059" id="Stroke-3" stroke="#484B53" stroke-linecap="round" stroke-linejoin="round"></path>
                                <path d="M23.1757894,46.0933446 L28.3259648,46.0933446" id="Stroke-5" stroke="#484B53" stroke-linecap="round" stroke-linejoin="round"></path>
                                <path d="M11.8209401,36.370546 C7.13084704,33.0596958 4.12486133,27.5939644 4.29910893,21.4468108 C4.55747606,12.3214965 12.0698653,4.72959293 21.3367476,4.24744668 C31.7392435,3.7053488 40.3434699,11.8393502 40.3434699,21.9542887 C40.3434699,27.9021664 37.3675269,33.1644001 32.7967462,36.3823674 C32.0061943,36.9388199 31.4928935,37.795875 31.3855982,38.7458129 L31.1538403,40.8086557 C31.0096354,42.0921274 29.9074978,43.0640194 28.5950615,43.0640194 L16.0397922,43.0640194 C14.7273558,43.0640194 13.6252182,42.0921274 13.4810133,40.8086557 L13.2492554,38.7475016 C13.1419601,37.7908086 12.6175006,36.9320648 11.8209401,36.370546 Z" id="Stroke-7" stroke="#484B53" stroke-width="2" stroke-linecap="round" stroke-linejoin="round" fill="#FFFFFF"></path>
                                <path d="M16.9644157,10.3135279 C17.112054,10.240066 17.2614091,10.168293 17.4116226,10.0998974" id="Stroke-9" stroke="#484B53" stroke-width="2" stroke-linecap="round" stroke-linejoin="round"></path>
                                <path d="M8.92224508,22.7228408 C8.97546356,20.8694065 9.39262777,19.0970335 10.1076438,17.4749618 C10.8226598,15.8528901 11.8346693,14.3811197 13.0741448,13.1288905 C13.5059012,12.6931856 13.9651252,12.2836568 14.4492417,11.9036817" id="Stroke-11" stroke="#484B53" stroke-width="2" stroke-linecap="round" stroke-linejoin="round"></path>
                                <path d="M22.3174268,0 L22.3174268,1.68877845" id="Stroke-13" stroke="#484B53" stroke-width="2" stroke-linecap="round" stroke-linejoin="round"></path>
                                <path d="M44.6348536,21.9541199 L42.9181285,21.9541199" id="Stroke-15" stroke="#484B53" stroke-width="2" stroke-linecap="round" stroke-linejoin="round"></path>
                                <path d="M1.71672514,21.9541199 L0,21.9541199" id="Stroke-17" stroke="#484B53" stroke-width="2" stroke-linecap="round" stroke-linejoin="round"></path>
                                <path d="M38.098251,6.43019283 L36.8845263,7.62415919" id="Stroke-19" stroke="#484B53" stroke-width="2" stroke-linecap="round" stroke-linejoin="round"></path>
                                <path d="M7.75041315,7.62424363 L6.53668847,6.43027727" id="Stroke-25" stroke="#484B53" stroke-width="2" stroke-linecap="round" stroke-linejoin="round"></path>
                                <path d="M30.858306,1.67146847 L30.2008003,3.23189976" id="Stroke-27" stroke="#484B53" stroke-width="2" stroke-linecap="round" stroke-linejoin="round"></path>
                                <path d="M3.28503939,14.1987426 L1.69878536,13.5519404" id="Stroke-31" stroke="#484B53" stroke-width="2" stroke-linecap="round" stroke-linejoin="round"></path>
                                <path d="M42.9357249,13.5522782 L41.3494709,14.1990803" id="Stroke-33" stroke="#484B53" stroke-width="2" stroke-linecap="round" stroke-linejoin="round"></path>
                                <path d="M14.4337099,3.231562 L13.7762042,1.67113072" id="Stroke-37" stroke="#484B53" stroke-width="2" stroke-linecap="round" stroke-linejoin="round"></path>
                                <path id="Stroke-39" stroke="#484B53" stroke-width="2" stroke-linecap="round" stroke-linejoin="round"></path>
                                <path id="Stroke-41" stroke="#484B53" stroke-width="2" stroke-linecap="round" stroke-linejoin="round"></path>
                                <path id="Stroke-43" stroke="#484B53" stroke-width="2" stroke-linecap="round" stroke-linejoin="round"></path>
                                <path id="Stroke-45" stroke="#484B53" stroke-width="2" stroke-linecap="round" stroke-linejoin="round"></path>
                                <path id="Stroke-47" stroke="#484B53" stroke-width="2" stroke-linecap="round" stroke-linejoin="round"></path>
                                <path id="Stroke-49" stroke="#484B53" stroke-width="2" stroke-linecap="round" stroke-linejoin="round"></path>
                                <path id="Stroke-51" stroke="#484B53" stroke-width="2" stroke-linecap="round" stroke-linejoin="round"></path>
                                <path id="Stroke-53" stroke="#484B53" stroke-width="2" stroke-linecap="round" stroke-linejoin="round"></path>
                                <path id="Stroke-55" stroke="#484B53" stroke-width="2" stroke-linecap="round" stroke-linejoin="round"></path>
                                <path id="Stroke-57" stroke="#484B53" stroke-width="2" stroke-linecap="round" stroke-linejoin="round"></path>
                                <path id="Stroke-59" stroke="#484B53" stroke-width="2" stroke-linecap="round" stroke-linejoin="round"></path>
                                <path id="Stroke-61" stroke="#484B53" stroke-width="2" stroke-linecap="round" stroke-linejoin="round"></path>
                                <path id="Stroke-63" stroke="#484B53" stroke-width="2" stroke-linecap="round" stroke-linejoin="round"></path>
                                <path id="Stroke-65" stroke="#484B53" stroke-width="2" stroke-linecap="round" stroke-linejoin="round"></path>
                                <path id="Stroke-67" stroke="#484B53" stroke-width="2" stroke-linecap="round" stroke-linejoin="round"></path>
                            </g>
                        </g>
                    </g>
                </g>
            </g>
        </g>
    </g>
</svg>