<?xml version="1.0" encoding="UTF-8"?>
<svg width="111px" height="110px" viewBox="0 0 111 110" version="1.1" xmlns="http://www.w3.org/2000/svg" xmlns:xlink="http://www.w3.org/1999/xlink">
    <!-- Generator: Sketch 41.2 (35397) - http://www.bohemiancoding.com/sketch -->
    <title>icon_first_choose_new</title>
    <desc>Created with Sketch.</desc>
    <defs></defs>
    <g id="Page-1" stroke="none" stroke-width="1" fill="none" fill-rule="evenodd">
        <g id="新人指南" transform="translate(-801.000000, -2601.000000)">
            <g id="为什么选择有娱" transform="translate(0.000000, 2412.000000)">
                <g id="Group-24" transform="translate(206.000000, 72.000000)">
                    <g id="ICON" transform="translate(0.000000, 117.000000)">
                        <g id="Group-16" transform="translate(550.666667, 0.000000)">
                            <g id="icon_first_choose_new" transform="translate(45.000000, 0.000000)">
                                <circle id="Oval-Copy-2" fill="#F3F3F5" cx="55" cy="55" r="55"></circle>
                                <g id="Page-1" transform="translate(33.000000, 31.000000)" stroke="#484B53" stroke-width="2" stroke-linecap="round" stroke-linejoin="round">
                                    <path d="M3.28587857,33.6786536 L3.28587857,17.2500821" id="Stroke-1"></path>
                                    <path d="M19.8705214,4.28769286 L6.11980714,12.3138714" id="Stroke-2"></path>
                                    <path d="M42.71445,33.6786536 L42.71445,17.2500821" id="Stroke-3"></path>
                                    <path d="M19.8705214,46.6410429 L6.11980714,38.6148643" id="Stroke-4"></path>
                                    <path d="M39.8803571,38.615275 L26.1296429,46.6414536" id="Stroke-5"></path>
                                    <path d="M39.8803571,12.3134607 L26.1296429,4.28728214" id="Stroke-6"></path>
                                    <g id="Group-39">
                                        <path d="M26.2858786,3.28579643 C26.2858786,5.10033214 24.8147,6.57151071 23.0001643,6.57151071 C21.1856286,6.57151071 19.71445,5.10033214 19.71445,3.28579643 C19.71445,1.47126071 21.1856286,8.21428571e-05 23.0001643,8.21428571e-05 C24.8147,8.21428571e-05 26.2858786,1.47126071 26.2858786,3.28579643 Z" id="Stroke-7" fill="#ECECEC"></path>
                                        <path d="M26.2858786,47.6429393 C26.2858786,49.457475 24.8147,50.9286536 23.0001643,50.9286536 C21.1856286,50.9286536 19.71445,49.457475 19.71445,47.6429393 C19.71445,45.8284036 21.1856286,44.357225 23.0001643,44.357225 C24.8147,44.357225 26.2858786,45.8284036 26.2858786,47.6429393 Z" id="Stroke-9" fill="#ECECEC"></path>
                                        <path d="M46.0001643,36.9643679 C46.0001643,38.7789036 44.5289857,40.2500821 42.71445,40.2500821 C40.8999143,40.2500821 39.4287357,38.7789036 39.4287357,36.9643679 C39.4287357,35.1498321 40.8999143,33.6786536 42.71445,33.6786536 C44.5289857,33.6786536 46.0001643,35.1498321 46.0001643,36.9643679 Z" id="Stroke-11" fill="#ECECEC"></path>
                                        <path d="M46.0001643,13.9643679 C46.0001643,15.7789036 44.5289857,17.2500821 42.71445,17.2500821 C40.8999143,17.2500821 39.4287357,15.7789036 39.4287357,13.9643679 C39.4287357,12.1498321 40.8999143,10.6786536 42.71445,10.6786536 C44.5289857,10.6786536 46.0001643,12.1498321 46.0001643,13.9643679 Z" id="Stroke-13" fill="#ECECEC"></path>
                                        <path d="M6.57159286,13.9643679 C6.57159286,15.7789036 5.10041429,17.2500821 3.28587857,17.2500821 C1.47134286,17.2500821 0.000164285714,15.7789036 0.000164285714,13.9643679 C0.000164285714,12.1498321 1.47134286,10.6786536 3.28587857,10.6786536 C5.10041429,10.6786536 6.57159286,12.1498321 6.57159286,13.9643679 Z" id="Stroke-15" fill="#ECECEC"></path>
                                        <path d="M6.57159286,36.9643679 C6.57159286,38.7789036 5.10041429,40.2500821 3.28587857,40.2500821 C1.47134286,40.2500821 0.000164285714,38.7789036 0.000164285714,36.9643679 C0.000164285714,35.1498321 1.47134286,33.6786536 3.28587857,33.6786536 C5.10041429,33.6786536 6.57159286,35.1498321 6.57159286,36.9643679 Z" id="Stroke-17" fill="#ECECEC"></path>
                                        <path d="M23.0001643,37.6622536 L23.0001643,44.3568964" id="Stroke-19"></path>
                                        <path d="M13.3832893,19.7143679 L6.11939643,15.6154393" id="Stroke-23"></path>
                                        <path d="M39.8803571,15.615275 L32.6164643,19.7142036" id="Stroke-25"></path>
                                        <path d="M30.0027607,25.4643679 C30.0027607,29.3316536 26.8673679,32.4670464 23.0000821,32.4670464 C19.1327964,32.4670464 15.9974036,29.3316536 15.9974036,25.4643679 C15.9974036,21.5970821 19.1327964,18.4616893 23.0000821,18.4616893 C26.8673679,18.4616893 30.0027607,21.5970821 30.0027607,25.4643679 Z" id="Stroke-31" fill="#FFD800"></path>
                                        <path d="M21.3408786,6.11988929 L4.94516429,34.1306036" id="Stroke-33"></path>
                                        <path d="M41.0551643,34.130275 L24.65945,6.11956071" id="Stroke-35"></path>
                                        <path d="M39.4287357,36.9643679 L6.57159286,36.9643679" id="Stroke-37"></path>
                                    </g>
                                </g>
                            </g>
                        </g>
                    </g>
                </g>
            </g>
        </g>
    </g>
</svg>