<?xml version="1.0" encoding="UTF-8"?>
<svg width="51px" height="54px" viewBox="0 0 51 54" version="1.1" xmlns="http://www.w3.org/2000/svg" xmlns:xlink="http://www.w3.org/1999/xlink">
    <!-- Generator: Sketch 41.2 (35397) - http://www.bohemiancoding.com/sketch -->
    <title>icon_confirm</title>
    <desc>Created with Sketch.</desc>
    <defs></defs>
    <g id="Page-1" stroke="none" stroke-width="1" fill="none" fill-rule="evenodd" stroke-linecap="round" stroke-linejoin="round">
        <g id="新人指南" transform="translate(-601.000000, -3169.000000)" stroke-width="1.5" stroke="#2D2F33">
            <g id="Group-25" transform="translate(250.000000, 3056.000000)">
                <g id="Group-19" transform="translate(0.000000, 107.000000)">
                    <g id="Group-13" transform="translate(350.739130, 6.000000)">
                        <g id="icon_confirm" transform="translate(1.566828, 1.840909)">
                            <g id="Group-9">
                                <g id="Group-5" transform="translate(0.000000, 0.139666)">
                                    <g id="Group-8">
                                        <polyline id="Stroke-1" fill="#FFFFFF" points="13.6499987 0.513083501 38.4356531 0.513083501 38.4356531 47.6948619 0.00064658229 47.6948619 0.00064658229 14.2896751"></polyline>
                                        <polygon id="Stroke-3" fill="#ECECEC" points="0.00064658229 13.4279924 13.4711109 13.4279924 13.4711109 0.513083501"></polygon>
                                        <polygon id="Stroke-6" points="26.4006015 18.5503335 21.7042588 18.5503335 17.0100713 18.5503335 21.7042588 18.5503335"></polygon>
                                        <polygon id="Stroke-7" points="26.4027567 26.3068211 19.2170722 26.3068211 12.033543 26.3068211 19.2170722 26.3068211"></polygon>
                                        <polygon id="Stroke-8" points="21.7049054 34.0633088 16.8684698 34.0633088 12.0341896 34.0633088 16.8684698 34.0633088"></polygon>
                                    </g>
                                </g>
                                <g id="Group-7" transform="translate(28.018566, 30.482905)">
                                    <path d="M20.9083794,10.2216794 C20.9083794,15.6532342 16.3157434,20.0564585 10.6486398,20.0564585 C4.98533962,20.0564585 0.392703655,15.6532342 0.392703655,10.2216794 C0.392703655,4.79012452 4.98533962,0.386900283 10.6486398,0.386900283 C16.3157434,0.386900283 20.9083794,4.79012452 20.9083794,10.2216794 Z" id="Stroke-11" fill="#FFD800"></path>
                                    <polyline id="Stroke-15" points="6.64173131 9.74033313 9.64833896 12.6247641 14.6593517 7.81859469"></polyline>
                                </g>
                            </g>
                        </g>
                    </g>
                </g>
            </g>
        </g>
    </g>
</svg>