<?xml version="1.0" encoding="UTF-8"?>
<svg width="54px" height="58px" viewBox="0 0 54 58" version="1.1" xmlns="http://www.w3.org/2000/svg" xmlns:xlink="http://www.w3.org/1999/xlink">
    <!-- Generator: Sketch 41.2 (35397) - http://www.bohemiancoding.com/sketch -->
    <title>icon_market_why_new</title>
    <desc>Created with Sketch.</desc>
    <defs></defs>
    <g id="Page-1" stroke="none" stroke-width="1" fill="none" fill-rule="evenodd">
        <g id="新人指南" transform="translate(-259.000000, -880.000000)">
            <g id="为什么投资可转让.." transform="translate(206.000000, 766.000000)">
                <g id="ICON" transform="translate(0.000000, 105.000000)">
                    <g id="icon_market_index" transform="translate(0.000000, 9.000000)">
                        <g id="Group">
                            <g id="Group-30" transform="translate(54.000000, 4.000000)">
                                <polygon id="Stroke-1" fill="#FFD800" points="27.5551602 14.9228032 27.5551602 31.5036956 25.0680263 36.4779634 25.0680263 51.4007665 38.3327402 51.4007665 38.3327402 36.4779634 35.8456064 31.5036956 35.8456064 14.9228032 40.8198741 14.9228032 31.7003833 0 22.5808924 14.9228032"></polygon>
                                <path d="M21.5551602,15.9228032 L21.5551602,32.5036956 L19.0680263,37.4779634 L19.0680263,52.4007665 L32.3327402,52.4007665 L32.3327402,37.4779634 L29.8456064,32.5036956 L29.8456064,15.9228032 L34.8198741,15.9228032 L25.7003833,1 L16.5808924,15.9228032 L21.5551602,15.9228032 Z M34.8198741,25.042294 L34.8198741,32.5036956 L38.1360526,37.4779634 L38.1360526,52.4007665 L51.4007665,52.4007665 L51.4007665,37.4779634 L43.1103203,32.5036956 L43.1103203,25.042294 L45.5974542,25.042294 L38.9650972,15.0937586 L32.3327402,25.042294 L34.8198741,25.042294 Z M8.29044622,25.042294 L8.29044622,32.5036956 L0,37.4779634 L0,52.4007665 L13.2647139,52.4007665 L13.2647139,37.4779634 L16.5808924,32.5036956 L16.5808924,25.042294 L19.0680263,25.042294 L12.4356693,15.0937586 L5.80331235,25.042294 L8.29044622,25.042294 Z" id="Combined-Shape" stroke="#484B53" stroke-width="2" stroke-linecap="round" stroke-linejoin="round" fill="#FFFFFF"></path>
                            </g>
                        </g>
                    </g>
                </g>
            </g>
        </g>
    </g>
</svg>