<?xml version="1.0" encoding="UTF-8"?>
<svg width="59px" height="54px" viewBox="0 0 59 54" version="1.1" xmlns="http://www.w3.org/2000/svg" xmlns:xlink="http://www.w3.org/1999/xlink">
    <!-- Generator: Sketch 41.2 (35397) - http://www.bohemiancoding.com/sketch -->
    <title>icon_safe</title>
    <desc>Created with Sketch.</desc>
    <defs></defs>
    <g id="Page-1" stroke="none" stroke-width="1" fill="none" fill-rule="evenodd" stroke-linecap="round">
        <g id="新人指南" transform="translate(-250.000000, -3169.000000)" stroke-width="1.5">
            <g id="Group-25" transform="translate(250.000000, 3056.000000)">
                <g id="Group-19" transform="translate(0.000000, 107.000000)">
                    <g id="Group-4" transform="translate(0.000000, 6.000000)">
                        <g id="icon_safe" transform="translate(1.566828, 1.840909)">
                            <g id="Page-1" stroke-linejoin="round">
                                <path d="M49.0719229,24.9054364 C49.0719229,38.6598788 38.0863551,49.8108728 24.5359615,49.8108728 C10.9855678,49.8108728 0,38.6598788 0,24.9054364 C0,11.1509941 10.9855678,0 24.5359615,0 C38.0863551,0 49.0719229,11.1509941 49.0719229,24.9054364 Z" id="Stroke-1" stroke="#2D2F33" fill="#FFFFFF"></path>
                                <path d="M19.6287692,38.1883359 C22.236124,38.1883359 25.5321215,38.6715013 27.8695808,37.2618536 C29.8422721,36.0763548 31.0788845,33.8730539 31.0788845,31.5468861 C31.0788845,28.362311 28.8591979,25.8319187 25.8658106,25.1528304 C23.8538617,24.6962308 21.8173769,24.6895893 20.2045464,23.2417533 C18.8076323,21.9881796 17.9930384,20.1567999 17.9930384,18.2639867 C17.9930384,15.5127662 19.8201497,12.9823738 22.3702539,12.0177033 C24.514697,11.2074464 27.1858453,11.622537 29.4431538,11.622537" id="Stroke-3" stroke="#2D2F33"></path>
                                <path d="M24.0124346,7.83325786 L24.0124346,11.1539827" id="Stroke-5" stroke="#484B53"></path>
                                <path d="M24.0124346,39.380144 L24.0124346,42.7008689" id="Stroke-7" stroke="#484B53"></path>
                            </g>
                            <g id="Group-2" transform="translate(39.788046, 29.617276)" stroke="#2D2F33">
                                <path d="M0,3.07711956 C3.33827116,3.07711956 6.33450949,1.44009195 8.43578745,0 C10.5370654,1.44009195 13.5333037,3.07711956 16.8715749,3.07711956 L16.8715749,13.5039392 C16.8715749,17.0849371 13.4052332,20.1612873 8.43578745,21.5398369 C3.46634175,20.1612873 0,17.0849371 0,13.5039392 L0,3.07711956 Z" id="Page-1" stroke-linejoin="round" fill="#FFD800"></path>
                                <polyline id="Path-3" points="5.30507275 10.3645641 7.71691636 12.8127265 12.3819555 8.07743884"></polyline>
                            </g>
                        </g>
                    </g>
                </g>
            </g>
        </g>
    </g>
</svg>