<?xml version="1.0" encoding="UTF-8"?>
<svg width="16px" height="16px" viewBox="0 0 16 16" version="1.1" xmlns="http://www.w3.org/2000/svg" xmlns:xlink="http://www.w3.org/1999/xlink">
    <!-- Generator: Sketch 41.2 (35397) - http://www.bohemiancoding.com/sketch -->
    <title>icon_unlike_FAQ_pre</title>
    <desc>Created with Sketch.</desc>
    <defs>
        <path d="M2.68429907,7.58734656 C1.72747825,7.7359546 1,8.5644823 1,9.5643049 L1,16.4709055 C1,17.5789519 1.89800774,18.472327 3.00575642,18.473226 L10.661986,18.4794392 C11.7715679,18.4803397 12.8957886,17.6184581 13.1770978,16.5543762 L15.0446127,9.49030286 C15.3274908,8.42028649 14.6616041,7.56361212 13.5608173,7.56361212 L7.50348135,7.56361212 L8.62513634,5.62084869 C9.20132501,4.62286064 8.85723735,3.35559615 7.86199002,2.78098983 C6.85980401,2.20237747 5.5948002,2.54621073 5.02102694,3.54001516 L2.68429907,7.58734656 Z" id="path-1"></path>
        <mask id="mask-2" maskContentUnits="userSpaceOnUse" maskUnits="objectBoundingBox" x="0" y="0" width="14.1096834" height="15.9797055" fill="white">
            <use xlink:href="#path-1"></use>
        </mask>
    </defs>
    <g id="Page-1" stroke="none" stroke-width="1" fill="none" fill-rule="evenodd">
        <g id="btn" transform="translate(-373.000000, -292.000000)" stroke-width="2" stroke="#FFFFFF" fill="#FFFFFF">
            <g id="查看更多项目-copy-3" transform="translate(351.000000, 279.000000)">
                <g id="Group-21">
                    <g id="Group" transform="translate(22.000000, 10.500000)">
                        <use id="Combined-Shape" mask="url(#mask-2)" transform="translate(8.054842, 10.489587) scale(1, -1) translate(-8.054842, -10.489587) " xlink:href="#path-1"></use>
                    </g>
                </g>
            </g>
        </g>
    </g>
</svg>