<?xml version="1.0" encoding="UTF-8"?>
<svg width="62px" height="87px" viewBox="0 0 62 87" version="1.1" xmlns="http://www.w3.org/2000/svg" xmlns:xlink="http://www.w3.org/1999/xlink">
    <!-- Generator: Sketch 41.2 (35397) - http://www.bohemiancoding.com/sketch -->
    <title>icon_buy_payment</title>
    <desc>Created with Sketch.</desc>
    <defs></defs>
    <g id="Page-1" stroke="none" stroke-width="1" fill="none" fill-rule="evenodd" stroke-linecap="round" stroke-linejoin="round">
        <g id="摘牌_支付保证金" transform="translate(-689.000000, -255.000000)" stroke="#1D1D1D" stroke-width="2">
            <g id="Group-2" transform="translate(689.000000, 255.000000)">
                <g id="Page-1" transform="translate(1.000000, 58.432432)">
                    <polygon id="Stroke-1" points="7.65538491 27.5675676 0.000460377359 24.0239865 10.5718755 0.926959459 18.2268 4.47054054"></polygon>
                    <path d="M17.1596453,6.81447297 L28.8256075,0.846094595 C31.8192113,-0.698837838 35.4642491,-0.0866081081 37.8340415,2.33933784 L39.0574943,3.59021622 L25.8043811,10.3833243 L22.0062679,12.3210946" id="Stroke-3"></path>
                    <path d="M9.20754717,24.1216216 L39.0515094,24.1216216 L59.860566,13.8297297 L56.12,11.6702703 C53.6109434,9.95878378 50.7911321,10.1195946 47.6950943,11.4405405 L36.1741509,16.7243243 L26.1724528,10.1885135" id="Stroke-5"></path>
                </g>
                <g id="Page-1" transform="translate(32.075472, 1.000000)">
                    <path d="M25.3207547,39.0540541 C25.3207547,46.0320946 19.6523585,51.6891892 12.6603774,51.6891892 C5.66839623,51.6891892 0,46.0320946 0,39.0540541 C0,32.0760135 5.66839623,26.4189189 12.6603774,26.4189189 C19.6523585,26.4189189 25.3207547,32.0760135 25.3207547,39.0540541 Z" id="Stroke-1" fill="#FFD800"></path>
                    <path d="M16.9978226,34.2699324 C16.1530302,32.237973 14.2309547,32.1621622 12.353766,32.1621622 C10.1957472,32.1621622 8.0561434,33.084527 8.0561434,35.6081081 C8.0561434,37.0220946 8.94697358,38.3418919 10.2763132,38.8404054 C11.0347849,39.1252703 11.8634642,39.0540541 12.659917,39.0540541 C13.3965208,39.0540541 14.1803132,38.9839865 14.8892943,39.2102703 C16.2992,39.6582432 17.2636906,41.032027 17.2636906,42.5 C17.234917,45.0212838 15.1459547,45.9459459 12.9672189,45.9459459 C11.0900302,45.9459459 9.16910566,45.8712838 8.32316226,43.8381757" id="Stroke-3"></path>
                    <path d="M12.6603774,31.0135135 L12.6603774,47.0945946" id="Stroke-5"></path>
                    <path d="M12.6603774,0 L12.6603774,11.4864865" id="Stroke-7"></path>
                    <path id="Stroke-9"></path>
                    <path d="M17.2641509,5.74324324 L17.2641509,14.9324324" id="Stroke-11"></path>
                    <path d="M8.05660377,5.74324324 L8.05660377,14.9324324" id="Stroke-13"></path>
                </g>
            </g>
        </g>
    </g>
</svg>