<?xml version="1.0" encoding="UTF-8"?>
<svg width="952px" height="6px" viewBox="0 0 952 6" version="1.1" xmlns="http://www.w3.org/2000/svg" xmlns:xlink="http://www.w3.org/1999/xlink">
    <!-- Generator: Sketch 41.2 (35397) - http://www.bohemiancoding.com/sketch -->
    <title>pic_line_payment</title>
    <desc>Created with Sketch.</desc>
    <defs>
        <rect id="path-1" x="0" y="0" width="1200" height="292" rx="6"></rect>
    </defs>
    <g id="Page-1" stroke="none" stroke-width="1" fill="none" fill-rule="evenodd">
        <g id="摘牌_支付保证金" transform="translate(-244.000000, -501.000000)">
            <g id="Group">
                <g id="天金所开户">
                    <rect id="Rectangle-Copy-10" fill="#F3F3F5" x="0" y="0" width="1440" height="1116"></rect>
                    <g id="Rectangle-3" transform="translate(120.000000, 215.000000)">
                        <mask id="mask-2" fill="white">
                            <use xlink:href="#path-1"></use>
                        </mask>
                        <use id="Mask" fill="#FFFFFF" xlink:href="#path-1"></use>
                        <path d="M131.988342,292.292969 C131.996067,292.153482 132,292.01254 132,291.870336 C132,288.835957 130.209139,286.376107 128,286.376107 C125.790861,286.376107 124,288.835957 124,291.870336 C124,292.01254 124.003933,292.153482 124.011658,292.292969 L131.988342,292.292969 Z M147.988342,292.292969 C147.996067,292.153482 148,292.01254 148,291.870336 C148,288.835957 146.209139,286.376107 144,286.376107 C141.790861,286.376107 140,288.835957 140,291.870336 C140,292.01254 140.003933,292.153482 140.011658,292.292969 L147.988342,292.292969 Z M163.988342,292.292969 C163.996067,292.153482 164,292.01254 164,291.870336 C164,288.835957 162.209139,286.376107 160,286.376107 C157.790861,286.376107 156,288.835957 156,291.870336 C156,292.01254 156.003933,292.153482 156.011658,292.292969 L163.988342,292.292969 Z M179.988342,292.292969 C179.996067,292.153482 180,292.01254 180,291.870336 C180,288.835957 178.209139,286.376107 176,286.376107 C173.790861,286.376107 172,288.835957 172,291.870336 C172,292.01254 172.003933,292.153482 172.011658,292.292969 L179.988342,292.292969 Z M195.988342,292.292969 C195.996067,292.153482 196,292.01254 196,291.870336 C196,288.835957 194.209139,286.376107 192,286.376107 C189.790861,286.376107 188,288.835957 188,291.870336 C188,292.01254 188.003933,292.153482 188.011658,292.292969 L195.988342,292.292969 Z M211.988342,292.292969 C211.996067,292.153482 212,292.01254 212,291.870336 C212,288.835957 210.209139,286.376107 208,286.376107 C205.790861,286.376107 204,288.835957 204,291.870336 C204,292.01254 204.003933,292.153482 204.011658,292.292969 L211.988342,292.292969 Z M227.988342,292.292969 C227.996067,292.153482 228,292.01254 228,291.870336 C228,288.835957 226.209139,286.376107 224,286.376107 C221.790861,286.376107 220,288.835957 220,291.870336 C220,292.01254 220.003933,292.153482 220.011658,292.292969 L227.988342,292.292969 Z M243.988342,292.292969 C243.996067,292.153482 244,292.01254 244,291.870336 C244,288.835957 242.209139,286.376107 240,286.376107 C237.790861,286.376107 236,288.835957 236,291.870336 C236,292.01254 236.003933,292.153482 236.011658,292.292969 L243.988342,292.292969 Z M259.988342,292.292969 C259.996067,292.153482 260,292.01254 260,291.870336 C260,288.835957 258.209139,286.376107 256,286.376107 C253.790861,286.376107 252,288.835957 252,291.870336 C252,292.01254 252.003933,292.153482 252.011658,292.292969 L259.988342,292.292969 Z M275.988342,292.292969 C275.996067,292.153482 276,292.01254 276,291.870336 C276,288.835957 274.209139,286.376107 272,286.376107 C269.790861,286.376107 268,288.835957 268,291.870336 C268,292.01254 268.003933,292.153482 268.011658,292.292969 L275.988342,292.292969 Z M291.988342,292.292969 C291.996067,292.153482 292,292.01254 292,291.870336 C292,288.835957 290.209139,286.376107 288,286.376107 C285.790861,286.376107 284,288.835957 284,291.870336 C284,292.01254 284.003933,292.153482 284.011658,292.292969 L291.988342,292.292969 Z M307.988342,292.292969 C307.996067,292.153482 308,292.01254 308,291.870336 C308,288.835957 306.209139,286.376107 304,286.376107 C301.790861,286.376107 300,288.835957 300,291.870336 C300,292.01254 300.003933,292.153482 300.011658,292.292969 L307.988342,292.292969 Z M323.988342,292.292969 C323.996067,292.153482 324,292.01254 324,291.870336 C324,288.835957 322.209139,286.376107 320,286.376107 C317.790861,286.376107 316,288.835957 316,291.870336 C316,292.01254 316.003933,292.153482 316.011658,292.292969 L323.988342,292.292969 Z M339.988342,292.292969 C339.996067,292.153482 340,292.01254 340,291.870336 C340,288.835957 338.209139,286.376107 336,286.376107 C333.790861,286.376107 332,288.835957 332,291.870336 C332,292.01254 332.003933,292.153482 332.011658,292.292969 L339.988342,292.292969 Z M355.988342,292.292969 C355.996067,292.153482 356,292.01254 356,291.870336 C356,288.835957 354.209139,286.376107 352,286.376107 C349.790861,286.376107 348,288.835957 348,291.870336 C348,292.01254 348.003933,292.153482 348.011658,292.292969 L355.988342,292.292969 Z M371.988342,292.292969 C371.996067,292.153482 372,292.01254 372,291.870336 C372,288.835957 370.209139,286.376107 368,286.376107 C365.790861,286.376107 364,288.835957 364,291.870336 C364,292.01254 364.003933,292.153482 364.011658,292.292969 L371.988342,292.292969 Z M387.988342,292.292969 C387.996067,292.153482 388,292.01254 388,291.870336 C388,288.835957 386.209139,286.376107 384,286.376107 C381.790861,286.376107 380,288.835957 380,291.870336 C380,292.01254 380.003933,292.153482 380.011658,292.292969 L387.988342,292.292969 Z M403.988342,292.292969 C403.996067,292.153482 404,292.01254 404,291.870336 C404,288.835957 402.209139,286.376107 400,286.376107 C397.790861,286.376107 396,288.835957 396,291.870336 C396,292.01254 396.003933,292.153482 396.011658,292.292969 L403.988342,292.292969 Z M419.988342,292.292969 C419.996067,292.153482 420,292.01254 420,291.870336 C420,288.835957 418.209139,286.376107 416,286.376107 C413.790861,286.376107 412,288.835957 412,291.870336 C412,292.01254 412.003933,292.153482 412.011658,292.292969 L419.988342,292.292969 Z M435.988342,292.292969 C435.996067,292.153482 436,292.01254 436,291.870336 C436,288.835957 434.209139,286.376107 432,286.376107 C429.790861,286.376107 428,288.835957 428,291.870336 C428,292.01254 428.003933,292.153482 428.011658,292.292969 L435.988342,292.292969 Z M451.988342,292.292969 C451.996067,292.153482 452,292.01254 452,291.870336 C452,288.835957 450.209139,286.376107 448,286.376107 C445.790861,286.376107 444,288.835957 444,291.870336 C444,292.01254 444.003933,292.153482 444.011658,292.292969 L451.988342,292.292969 Z M467.988342,292.292969 C467.996067,292.153482 468,292.01254 468,291.870336 C468,288.835957 466.209139,286.376107 464,286.376107 C461.790861,286.376107 460,288.835957 460,291.870336 C460,292.01254 460.003933,292.153482 460.011658,292.292969 L467.988342,292.292969 Z M483.988342,292.292969 C483.996067,292.153482 484,292.01254 484,291.870336 C484,288.835957 482.209139,286.376107 480,286.376107 C477.790861,286.376107 476,288.835957 476,291.870336 C476,292.01254 476.003933,292.153482 476.011658,292.292969 L483.988342,292.292969 Z M499.988342,292.292969 C499.996067,292.153482 500,292.01254 500,291.870336 C500,288.835957 498.209139,286.376107 496,286.376107 C493.790861,286.376107 492,288.835957 492,291.870336 C492,292.01254 492.003933,292.153482 492.011658,292.292969 L499.988342,292.292969 Z M515.988342,292.292969 C515.996067,292.153482 516,292.01254 516,291.870336 C516,288.835957 514.209139,286.376107 512,286.376107 C509.790861,286.376107 508,288.835957 508,291.870336 C508,292.01254 508.003933,292.153482 508.011658,292.292969 L515.988342,292.292969 Z M531.988342,292.292969 C531.996067,292.153482 532,292.01254 532,291.870336 C532,288.835957 530.209139,286.376107 528,286.376107 C525.790861,286.376107 524,288.835957 524,291.870336 C524,292.01254 524.003933,292.153482 524.011658,292.292969 L531.988342,292.292969 Z M547.988342,292.292969 C547.996067,292.153482 548,292.01254 548,291.870336 C548,288.835957 546.209139,286.376107 544,286.376107 C541.790861,286.376107 540,288.835957 540,291.870336 C540,292.01254 540.003933,292.153482 540.011658,292.292969 L547.988342,292.292969 Z M563.988342,292.292969 C563.996067,292.153482 564,292.01254 564,291.870336 C564,288.835957 562.209139,286.376107 560,286.376107 C557.790861,286.376107 556,288.835957 556,291.870336 C556,292.01254 556.003933,292.153482 556.011658,292.292969 L563.988342,292.292969 Z M579.988342,292.292969 C579.996067,292.153482 580,292.01254 580,291.870336 C580,288.835957 578.209139,286.376107 576,286.376107 C573.790861,286.376107 572,288.835957 572,291.870336 C572,292.01254 572.003933,292.153482 572.011658,292.292969 L579.988342,292.292969 Z M595.988342,292.292969 C595.996067,292.153482 596,292.01254 596,291.870336 C596,288.835957 594.209139,286.376107 592,286.376107 C589.790861,286.376107 588,288.835957 588,291.870336 C588,292.01254 588.003933,292.153482 588.011658,292.292969 L595.988342,292.292969 Z M611.988342,292.292969 C611.996067,292.153482 612,292.01254 612,291.870336 C612,288.835957 610.209139,286.376107 608,286.376107 C605.790861,286.376107 604,288.835957 604,291.870336 C604,292.01254 604.003933,292.153482 604.011658,292.292969 L611.988342,292.292969 Z M627.988342,292.292969 C627.996067,292.153482 628,292.01254 628,291.870336 C628,288.835957 626.209139,286.376107 624,286.376107 C621.790861,286.376107 620,288.835957 620,291.870336 C620,292.01254 620.003933,292.153482 620.011658,292.292969 L627.988342,292.292969 Z M643.988342,292.292969 C643.996067,292.153482 644,292.01254 644,291.870336 C644,288.835957 642.209139,286.376107 640,286.376107 C637.790861,286.376107 636,288.835957 636,291.870336 C636,292.01254 636.003933,292.153482 636.011658,292.292969 L643.988342,292.292969 Z M659.988342,292.292969 C659.996067,292.153482 660,292.01254 660,291.870336 C660,288.835957 658.209139,286.376107 656,286.376107 C653.790861,286.376107 652,288.835957 652,291.870336 C652,292.01254 652.003933,292.153482 652.011658,292.292969 L659.988342,292.292969 Z M675.988342,292.292969 C675.996067,292.153482 676,292.01254 676,291.870336 C676,288.835957 674.209139,286.376107 672,286.376107 C669.790861,286.376107 668,288.835957 668,291.870336 C668,292.01254 668.003933,292.153482 668.011658,292.292969 L675.988342,292.292969 Z M691.988342,292.292969 C691.996067,292.153482 692,292.01254 692,291.870336 C692,288.835957 690.209139,286.376107 688,286.376107 C685.790861,286.376107 684,288.835957 684,291.870336 C684,292.01254 684.003933,292.153482 684.011658,292.292969 L691.988342,292.292969 Z M707.988342,292.292969 C707.996067,292.153482 708,292.01254 708,291.870336 C708,288.835957 706.209139,286.376107 704,286.376107 C701.790861,286.376107 700,288.835957 700,291.870336 C700,292.01254 700.003933,292.153482 700.011658,292.292969 L707.988342,292.292969 Z M723.988342,292.292969 C723.996067,292.153482 724,292.01254 724,291.870336 C724,288.835957 722.209139,286.376107 720,286.376107 C717.790861,286.376107 716,288.835957 716,291.870336 C716,292.01254 716.003933,292.153482 716.011658,292.292969 L723.988342,292.292969 Z M739.988342,292.292969 C739.996067,292.153482 740,292.01254 740,291.870336 C740,288.835957 738.209139,286.376107 736,286.376107 C733.790861,286.376107 732,288.835957 732,291.870336 C732,292.01254 732.003933,292.153482 732.011658,292.292969 L739.988342,292.292969 Z M755.988342,292.292969 C755.996067,292.153482 756,292.01254 756,291.870336 C756,288.835957 754.209139,286.376107 752,286.376107 C749.790861,286.376107 748,288.835957 748,291.870336 C748,292.01254 748.003933,292.153482 748.011658,292.292969 L755.988342,292.292969 Z M771.988342,292.292969 C771.996067,292.153482 772,292.01254 772,291.870336 C772,288.835957 770.209139,286.376107 768,286.376107 C765.790861,286.376107 764,288.835957 764,291.870336 C764,292.01254 764.003933,292.153482 764.011658,292.292969 L771.988342,292.292969 Z M787.988342,292.292969 C787.996067,292.153482 788,292.01254 788,291.870336 C788,288.835957 786.209139,286.376107 784,286.376107 C781.790861,286.376107 780,288.835957 780,291.870336 C780,292.01254 780.003933,292.153482 780.011658,292.292969 L787.988342,292.292969 Z M803.988342,292.292969 C803.996067,292.153482 804,292.01254 804,291.870336 C804,288.835957 802.209139,286.376107 800,286.376107 C797.790861,286.376107 796,288.835957 796,291.870336 C796,292.01254 796.003933,292.153482 796.011658,292.292969 L803.988342,292.292969 Z M819.988342,292.292969 C819.996067,292.153482 820,292.01254 820,291.870336 C820,288.835957 818.209139,286.376107 816,286.376107 C813.790861,286.376107 812,288.835957 812,291.870336 C812,292.01254 812.003933,292.153482 812.011658,292.292969 L819.988342,292.292969 Z M835.988342,292.292969 C835.996067,292.153482 836,292.01254 836,291.870336 C836,288.835957 834.209139,286.376107 832,286.376107 C829.790861,286.376107 828,288.835957 828,291.870336 C828,292.01254 828.003933,292.153482 828.011658,292.292969 L835.988342,292.292969 Z M851.988342,292.292969 C851.996067,292.153482 852,292.01254 852,291.870336 C852,288.835957 850.209139,286.376107 848,286.376107 C845.790861,286.376107 844,288.835957 844,291.870336 C844,292.01254 844.003933,292.153482 844.011658,292.292969 L851.988342,292.292969 Z M867.988342,292.292969 C867.996067,292.153482 868,292.01254 868,291.870336 C868,288.835957 866.209139,286.376107 864,286.376107 C861.790861,286.376107 860,288.835957 860,291.870336 C860,292.01254 860.003933,292.153482 860.011658,292.292969 L867.988342,292.292969 Z M883.988342,292.292969 C883.996067,292.153482 884,292.01254 884,291.870336 C884,288.835957 882.209139,286.376107 880,286.376107 C877.790861,286.376107 876,288.835957 876,291.870336 C876,292.01254 876.003933,292.153482 876.011658,292.292969 L883.988342,292.292969 Z M899.988342,292.292969 C899.996067,292.153482 900,292.01254 900,291.870336 C900,288.835957 898.209139,286.376107 896,286.376107 C893.790861,286.376107 892,288.835957 892,291.870336 C892,292.01254 892.003933,292.153482 892.011658,292.292969 L899.988342,292.292969 Z M915.988342,292.292969 C915.996067,292.153482 916,292.01254 916,291.870336 C916,288.835957 914.209139,286.376107 912,286.376107 C909.790861,286.376107 908,288.835957 908,291.870336 C908,292.01254 908.003933,292.153482 908.011658,292.292969 L915.988342,292.292969 Z M931.988342,292.292969 C931.996067,292.153482 932,292.01254 932,291.870336 C932,288.835957 930.209139,286.376107 928,286.376107 C925.790861,286.376107 924,288.835957 924,291.870336 C924,292.01254 924.003933,292.153482 924.011658,292.292969 L931.988342,292.292969 Z M947.988342,292.292969 C947.996067,292.153482 948,292.01254 948,291.870336 C948,288.835957 946.209139,286.376107 944,286.376107 C941.790861,286.376107 940,288.835957 940,291.870336 C940,292.01254 940.003933,292.153482 940.011658,292.292969 L947.988342,292.292969 Z M963.988342,292.292969 C963.996067,292.153482 964,292.01254 964,291.870336 C964,288.835957 962.209139,286.376107 960,286.376107 C957.790861,286.376107 956,288.835957 956,291.870336 C956,292.01254 956.003933,292.153482 956.011658,292.292969 L963.988342,292.292969 Z M979.988342,292.292969 C979.996067,292.153482 980,292.01254 980,291.870336 C980,288.835957 978.209139,286.376107 976,286.376107 C973.790861,286.376107 972,288.835957 972,291.870336 C972,292.01254 972.003933,292.153482 972.011658,292.292969 L979.988342,292.292969 Z M995.988342,292.292969 C995.996067,292.153482 996,292.01254 996,291.870336 C996,288.835957 994.209139,286.376107 992,286.376107 C989.790861,286.376107 988,288.835957 988,291.870336 C988,292.01254 988.003933,292.153482 988.011658,292.292969 L995.988342,292.292969 Z M1011.98834,292.292969 C1011.99607,292.153482 1012,292.01254 1012,291.870336 C1012,288.835957 1010.20914,286.376107 1008,286.376107 C1005.79086,286.376107 1004,288.835957 1004,291.870336 C1004,292.01254 1004.00393,292.153482 1004.01166,292.292969 L1011.98834,292.292969 Z M1027.98834,292.292969 C1027.99607,292.153482 1028,292.01254 1028,291.870336 C1028,288.835957 1026.20914,286.376107 1024,286.376107 C1021.79086,286.376107 1020,288.835957 1020,291.870336 C1020,292.01254 1020.00393,292.153482 1020.01166,292.292969 L1027.98834,292.292969 Z M1043.98834,292.292969 C1043.99607,292.153482 1044,292.01254 1044,291.870336 C1044,288.835957 1042.20914,286.376107 1040,286.376107 C1037.79086,286.376107 1036,288.835957 1036,291.870336 C1036,292.01254 1036.00393,292.153482 1036.01166,292.292969 L1043.98834,292.292969 Z M1059.98834,292.292969 C1059.99607,292.153482 1060,292.01254 1060,291.870336 C1060,288.835957 1058.20914,286.376107 1056,286.376107 C1053.79086,286.376107 1052,288.835957 1052,291.870336 C1052,292.01254 1052.00393,292.153482 1052.01166,292.292969 L1059.98834,292.292969 Z M1075.98834,292.292969 C1075.99607,292.153482 1076,292.01254 1076,291.870336 C1076,288.835957 1074.20914,286.376107 1072,286.376107 C1069.79086,286.376107 1068,288.835957 1068,291.870336 C1068,292.01254 1068.00393,292.153482 1068.01166,292.292969 L1075.98834,292.292969 Z" id="Combined-Shape" fill="#F2F3F5" mask="url(#mask-2)"></path>
                    </g>
                </g>
            </g>
        </g>
    </g>
</svg>